%TF.GenerationSoftware,KiCad,Pcbnew,6.0.7-f9a2dced07~116~ubuntu20.04.1*%
%TF.CreationDate,2022-10-21T17:12:48+02:00*%
%TF.ProjectId,openDTU,6f70656e-4454-4552-9e6b-696361645f70,rev?*%
%TF.SameCoordinates,PX729cd20PY72d18e0*%
%TF.FileFunction,Legend,Top*%
%TF.FilePolarity,Positive*%
%FSLAX46Y46*%
G04 Gerber Fmt 4.6, Leading zero omitted, Abs format (unit mm)*
G04 Created by KiCad (PCBNEW 6.0.7-f9a2dced07~116~ubuntu20.04.1) date 2022-10-21 17:12:48*
%MOMM*%
%LPD*%
G01*
G04 APERTURE LIST*
%TA.AperFunction,Profile*%
%ADD10C,0.100000*%
%TD*%
%ADD11C,0.250000*%
%ADD12C,0.400000*%
%ADD13C,0.150000*%
%ADD14C,0.120000*%
G04 APERTURE END LIST*
D10*
X0Y50000000D02*
X50000000Y50000000D01*
X50000000Y50000000D02*
X50000000Y0D01*
X50000000Y0D02*
X0Y0D01*
X0Y0D02*
X0Y50000000D01*
D11*
X35757423Y2316220D02*
X35424090Y2792410D01*
X35185995Y2316220D02*
X35185995Y3316220D01*
X35566947Y3316220D01*
X35662185Y3268600D01*
X35709804Y3220981D01*
X35757423Y3125743D01*
X35757423Y2982886D01*
X35709804Y2887648D01*
X35662185Y2840029D01*
X35566947Y2792410D01*
X35185995Y2792410D01*
X36566947Y2363839D02*
X36471709Y2316220D01*
X36281233Y2316220D01*
X36185995Y2363839D01*
X36138376Y2459077D01*
X36138376Y2840029D01*
X36185995Y2935267D01*
X36281233Y2982886D01*
X36471709Y2982886D01*
X36566947Y2935267D01*
X36614566Y2840029D01*
X36614566Y2744791D01*
X36138376Y2649553D01*
X36947900Y2982886D02*
X37185995Y2316220D01*
X37424090Y2982886D01*
X39090757Y2316220D02*
X38519328Y2316220D01*
X38805042Y2316220D02*
X38805042Y3316220D01*
X38709804Y3173362D01*
X38614566Y3078124D01*
X38519328Y3030505D01*
X39519328Y2411458D02*
X39566947Y2363839D01*
X39519328Y2316220D01*
X39471709Y2363839D01*
X39519328Y2411458D01*
X39519328Y2316220D01*
X40185995Y3316220D02*
X40281233Y3316220D01*
X40376471Y3268600D01*
X40424090Y3220981D01*
X40471709Y3125743D01*
X40519328Y2935267D01*
X40519328Y2697172D01*
X40471709Y2506696D01*
X40424090Y2411458D01*
X40376471Y2363839D01*
X40281233Y2316220D01*
X40185995Y2316220D01*
X40090757Y2363839D01*
X40043138Y2411458D01*
X39995519Y2506696D01*
X39947900Y2697172D01*
X39947900Y2935267D01*
X39995519Y3125743D01*
X40043138Y3220981D01*
X40090757Y3268600D01*
X40185995Y3316220D01*
X40947900Y2411458D02*
X40995519Y2363839D01*
X40947900Y2316220D01*
X40900280Y2363839D01*
X40947900Y2411458D01*
X40947900Y2316220D01*
X41614566Y3316220D02*
X41709804Y3316220D01*
X41805042Y3268600D01*
X41852661Y3220981D01*
X41900280Y3125743D01*
X41947900Y2935267D01*
X41947900Y2697172D01*
X41900280Y2506696D01*
X41852661Y2411458D01*
X41805042Y2363839D01*
X41709804Y2316220D01*
X41614566Y2316220D01*
X41519328Y2363839D01*
X41471709Y2411458D01*
X41424090Y2506696D01*
X41376471Y2697172D01*
X41376471Y2935267D01*
X41424090Y3125743D01*
X41471709Y3220981D01*
X41519328Y3268600D01*
X41614566Y3316220D01*
X42376471Y2697172D02*
X43138376Y2697172D01*
X43566947Y3220981D02*
X43614566Y3268600D01*
X43709804Y3316220D01*
X43947900Y3316220D01*
X44043138Y3268600D01*
X44090757Y3220981D01*
X44138376Y3125743D01*
X44138376Y3030505D01*
X44090757Y2887648D01*
X43519328Y2316220D01*
X44138376Y2316220D01*
X44757423Y3316220D02*
X44852661Y3316220D01*
X44947900Y3268600D01*
X44995519Y3220981D01*
X45043138Y3125743D01*
X45090757Y2935267D01*
X45090757Y2697172D01*
X45043138Y2506696D01*
X44995519Y2411458D01*
X44947900Y2363839D01*
X44852661Y2316220D01*
X44757423Y2316220D01*
X44662185Y2363839D01*
X44614566Y2411458D01*
X44566947Y2506696D01*
X44519328Y2697172D01*
X44519328Y2935267D01*
X44566947Y3125743D01*
X44614566Y3220981D01*
X44662185Y3268600D01*
X44757423Y3316220D01*
X45471709Y3220981D02*
X45519328Y3268600D01*
X45614566Y3316220D01*
X45852661Y3316220D01*
X45947900Y3268600D01*
X45995519Y3220981D01*
X46043138Y3125743D01*
X46043138Y3030505D01*
X45995519Y2887648D01*
X45424090Y2316220D01*
X46043138Y2316220D01*
X46424090Y3220981D02*
X46471709Y3268600D01*
X46566947Y3316220D01*
X46805042Y3316220D01*
X46900280Y3268600D01*
X46947900Y3220981D01*
X46995519Y3125743D01*
X46995519Y3030505D01*
X46947900Y2887648D01*
X46376471Y2316220D01*
X46995519Y2316220D01*
D12*
X35806485Y6743943D02*
X36235057Y6743943D01*
X36449342Y6636800D01*
X36663628Y6422515D01*
X36770771Y5993943D01*
X36770771Y5243943D01*
X36663628Y4815372D01*
X36449342Y4601086D01*
X36235057Y4493943D01*
X35806485Y4493943D01*
X35592200Y4601086D01*
X35377914Y4815372D01*
X35270771Y5243943D01*
X35270771Y5993943D01*
X35377914Y6422515D01*
X35592200Y6636800D01*
X35806485Y6743943D01*
X37735057Y5993943D02*
X37735057Y3743943D01*
X37735057Y5886800D02*
X37949342Y5993943D01*
X38377914Y5993943D01*
X38592200Y5886800D01*
X38699342Y5779658D01*
X38806485Y5565372D01*
X38806485Y4922515D01*
X38699342Y4708229D01*
X38592200Y4601086D01*
X38377914Y4493943D01*
X37949342Y4493943D01*
X37735057Y4601086D01*
X40627914Y4601086D02*
X40413628Y4493943D01*
X39985057Y4493943D01*
X39770771Y4601086D01*
X39663628Y4815372D01*
X39663628Y5672515D01*
X39770771Y5886800D01*
X39985057Y5993943D01*
X40413628Y5993943D01*
X40627914Y5886800D01*
X40735057Y5672515D01*
X40735057Y5458229D01*
X39663628Y5243943D01*
X41699342Y5993943D02*
X41699342Y4493943D01*
X41699342Y5779658D02*
X41806485Y5886800D01*
X42020771Y5993943D01*
X42342200Y5993943D01*
X42556485Y5886800D01*
X42663628Y5672515D01*
X42663628Y4493943D01*
X43735057Y4493943D02*
X43735057Y6743943D01*
X44270771Y6743943D01*
X44592200Y6636800D01*
X44806485Y6422515D01*
X44913628Y6208229D01*
X45020771Y5779658D01*
X45020771Y5458229D01*
X44913628Y5029658D01*
X44806485Y4815372D01*
X44592200Y4601086D01*
X44270771Y4493943D01*
X43735057Y4493943D01*
X45663628Y6743943D02*
X46949342Y6743943D01*
X46306485Y4493943D02*
X46306485Y6743943D01*
X47699342Y6743943D02*
X47699342Y4922515D01*
X47806485Y4708229D01*
X47913628Y4601086D01*
X48127914Y4493943D01*
X48556485Y4493943D01*
X48770771Y4601086D01*
X48877914Y4708229D01*
X48985057Y4922515D01*
X48985057Y6743943D01*
D13*
%TO.C,U1*%
X29284780Y48056896D02*
X30094304Y48056896D01*
X30189542Y48104515D01*
X30237161Y48152134D01*
X30284780Y48247372D01*
X30284780Y48437848D01*
X30237161Y48533086D01*
X30189542Y48580705D01*
X30094304Y48628324D01*
X29284780Y48628324D01*
X30284780Y49628324D02*
X30284780Y49056896D01*
X30284780Y49342610D02*
X29284780Y49342610D01*
X29427638Y49247372D01*
X29522876Y49152134D01*
X29570495Y49056896D01*
%TO.C,C1*%
X30072133Y14349458D02*
X30024514Y14301839D01*
X29881657Y14254220D01*
X29786419Y14254220D01*
X29643561Y14301839D01*
X29548323Y14397077D01*
X29500704Y14492315D01*
X29453085Y14682791D01*
X29453085Y14825648D01*
X29500704Y15016124D01*
X29548323Y15111362D01*
X29643561Y15206600D01*
X29786419Y15254220D01*
X29881657Y15254220D01*
X30024514Y15206600D01*
X30072133Y15158981D01*
X31024514Y14254220D02*
X30453085Y14254220D01*
X30738800Y14254220D02*
X30738800Y15254220D01*
X30643561Y15111362D01*
X30548323Y15016124D01*
X30453085Y14968505D01*
%TO.C,U2*%
X33018580Y48082296D02*
X33828104Y48082296D01*
X33923342Y48129915D01*
X33970961Y48177534D01*
X34018580Y48272772D01*
X34018580Y48463248D01*
X33970961Y48558486D01*
X33923342Y48606105D01*
X33828104Y48653724D01*
X33018580Y48653724D01*
X33113819Y49082296D02*
X33066200Y49129915D01*
X33018580Y49225153D01*
X33018580Y49463248D01*
X33066200Y49558486D01*
X33113819Y49606105D01*
X33209057Y49653724D01*
X33304295Y49653724D01*
X33447152Y49606105D01*
X34018580Y49034677D01*
X34018580Y49653724D01*
D14*
%TO.C,TP6*%
X20470000Y17145000D02*
G75*
G03*
X20470000Y17145000I-950000J0D01*
G01*
%TO.C,TP5*%
X20470000Y19685000D02*
G75*
G03*
X20470000Y19685000I-950000J0D01*
G01*
%TO.C,TP4*%
X20470000Y22225000D02*
G75*
G03*
X20470000Y22225000I-950000J0D01*
G01*
%TO.C,TP3*%
X20470000Y24765000D02*
G75*
G03*
X20470000Y24765000I-950000J0D01*
G01*
%TO.C,TP2*%
X20470000Y27305000D02*
G75*
G03*
X20470000Y27305000I-950000J0D01*
G01*
%TO.C,TP1*%
X20470000Y29845000D02*
G75*
G03*
X20470000Y29845000I-950000J0D01*
G01*
%TO.C,U1*%
X28669000Y46387000D02*
X28669000Y607000D01*
X3269000Y46387000D02*
X3269000Y607000D01*
X609000Y46387000D02*
X609000Y607000D01*
X26009000Y46387000D02*
X26009000Y607000D01*
X1939000Y48987000D02*
X3269000Y48987000D01*
X26009000Y46387000D02*
X28669000Y46387000D01*
X27339000Y48987000D02*
X28669000Y48987000D01*
X26009000Y607000D02*
X28669000Y607000D01*
X609000Y46387000D02*
X3269000Y46387000D01*
X3269000Y48987000D02*
X3269000Y47657000D01*
X28669000Y48987000D02*
X28669000Y47657000D01*
X609000Y607000D02*
X3269000Y607000D01*
%TO.C,G\u002A\u002A\u002A*%
G36*
X33539218Y4310741D02*
G01*
X33660439Y4127386D01*
X33665292Y4046439D01*
X33545693Y3813427D01*
X33274734Y3725457D01*
X32984171Y3792747D01*
X32819721Y3980867D01*
X32741041Y4238620D01*
X32827853Y4341155D01*
X33150928Y4359986D01*
X33194921Y4360019D01*
X33539218Y4310741D01*
G37*
G36*
X31192225Y4325151D02*
G01*
X31274733Y4195909D01*
X31251820Y4112011D01*
X31168804Y3862070D01*
X31156650Y3798430D01*
X31022072Y3749080D01*
X30764675Y3732859D01*
X30457302Y3806353D01*
X30372699Y4046439D01*
X30443530Y4272860D01*
X30710221Y4355421D01*
X30859844Y4360019D01*
X31192225Y4325151D01*
G37*
G36*
X29727870Y4516809D02*
G01*
X30012765Y5535945D01*
X34036776Y5535945D01*
X34239985Y4751995D01*
X34362198Y4180852D01*
X34436324Y3642947D01*
X34446218Y3458476D01*
X34449242Y2948908D01*
X31940600Y2948908D01*
X30998721Y2951562D01*
X30325990Y2962768D01*
X29877999Y2987394D01*
X29610337Y3030309D01*
X29478596Y3096380D01*
X29438366Y3190476D01*
X29437467Y3223291D01*
X29481047Y3510037D01*
X29495971Y3576069D01*
X29917328Y3576069D01*
X34120663Y3576069D01*
X33894675Y4320822D01*
X33763178Y4775113D01*
X33680835Y5099808D01*
X33666989Y5183167D01*
X33522685Y5233963D01*
X33144068Y5270115D01*
X32610062Y5291623D01*
X31999592Y5298489D01*
X31391582Y5290710D01*
X30864957Y5268289D01*
X30498642Y5231224D01*
X30371002Y5183167D01*
X30327763Y4975661D01*
X30219547Y4578622D01*
X30143316Y4320822D01*
X29917328Y3576069D01*
X29495971Y3576069D01*
X29589482Y3989829D01*
X29727870Y4516809D01*
G37*
G36*
X32326368Y4286525D02*
G01*
X32410971Y4046439D01*
X32319103Y3800541D01*
X32018996Y3732859D01*
X31711623Y3806353D01*
X31627020Y4046439D01*
X31718888Y4292337D01*
X32018996Y4360019D01*
X32326368Y4286525D01*
G37*
G36*
X32402745Y2682572D02*
G01*
X32789705Y2567253D01*
X32998122Y2366703D01*
X33000092Y2360945D01*
X32942914Y2248913D01*
X32654449Y2186230D01*
X32096140Y2165089D01*
X32032061Y2164958D01*
X31478325Y2187596D01*
X31112911Y2248619D01*
X30999860Y2325628D01*
X31135800Y2534189D01*
X31479273Y2664336D01*
X31933762Y2714365D01*
X32402745Y2682572D01*
G37*
G36*
X31237554Y5085424D02*
G01*
X31313439Y4842736D01*
X31313440Y4841295D01*
X31229690Y4590990D01*
X30930125Y4516932D01*
X30909968Y4516809D01*
X30612032Y4574128D01*
X30555917Y4774893D01*
X30558792Y4791192D01*
X30737727Y5028182D01*
X30962264Y5115677D01*
X31237554Y5085424D01*
G37*
G36*
X32326368Y5070476D02*
G01*
X32410971Y4830390D01*
X32319103Y4584492D01*
X32018996Y4516809D01*
X31711623Y4590304D01*
X31627020Y4830390D01*
X31718888Y5076288D01*
X32018996Y5143970D01*
X32326368Y5070476D01*
G37*
G36*
X32138253Y7094331D02*
G01*
X32183809Y6981581D01*
X32389153Y6778605D01*
X32573335Y6792035D01*
X32776520Y6803116D01*
X32780675Y6597375D01*
X32772164Y6563428D01*
X32804678Y6252427D01*
X32955094Y6143191D01*
X33125647Y6033249D01*
X33012080Y5908502D01*
X32724878Y5785387D01*
X32582198Y5922786D01*
X32539468Y6123908D01*
X32428346Y6384045D01*
X32136061Y6473475D01*
X32018996Y6476686D01*
X31664245Y6421053D01*
X31515224Y6211365D01*
X31498523Y6123908D01*
X31406691Y5828491D01*
X31210020Y5809215D01*
X31020246Y5912003D01*
X30900858Y6046966D01*
X31058761Y6189621D01*
X31083666Y6203773D01*
X31280257Y6447656D01*
X31260254Y6624320D01*
X31239081Y6812335D01*
X31438685Y6800137D01*
X31459580Y6793646D01*
X31780741Y6823374D01*
X31918420Y6979382D01*
X32050933Y7175609D01*
X32138253Y7094331D01*
G37*
G36*
X33075727Y5115677D02*
G01*
X33385067Y4982841D01*
X33491154Y4770001D01*
X33384914Y4581055D01*
X33128023Y4516809D01*
X32816789Y4584164D01*
X32724704Y4825084D01*
X32724551Y4841295D01*
X32799800Y5084925D01*
X33074167Y5115899D01*
X33075727Y5115677D01*
G37*
%TO.C,C1*%
X34534400Y10040779D02*
X33539400Y10040779D01*
X34990400Y10961779D02*
X33539400Y10961779D01*
X34648400Y10200779D02*
X33539400Y10200779D01*
X35072400Y11441779D02*
X29926400Y11441779D01*
X31459400Y11121779D02*
X29971400Y11121779D01*
X34224400Y14196554D02*
X33724400Y14196554D01*
X31459400Y10720779D02*
X30085400Y10720779D01*
X31459400Y10360779D02*
X30252400Y10360779D01*
X34847400Y10560779D02*
X33539400Y10560779D01*
X31459400Y10520779D02*
X30170400Y10520779D01*
X31459400Y10000779D02*
X30495400Y10000779D01*
X35079400Y11601779D02*
X29919400Y11601779D01*
X34767400Y10400779D02*
X33539400Y10400779D01*
X31459400Y9600779D02*
X30894400Y9600779D01*
X31459400Y9680779D02*
X30800400Y9680779D01*
X33414400Y9200779D02*
X31584400Y9200779D01*
X35060400Y11321779D02*
X33539400Y11321779D01*
X35079400Y11641779D02*
X29919400Y11641779D01*
X31459400Y10040779D02*
X30464400Y10040779D01*
X33818400Y9400779D02*
X33539400Y9400779D01*
X31459400Y11361779D02*
X29934400Y11361779D01*
X33942400Y9480779D02*
X33539400Y9480779D01*
X35042400Y11201779D02*
X33539400Y11201779D01*
X32783400Y9040779D02*
X32215400Y9040779D01*
X31459400Y11401779D02*
X29930400Y11401779D01*
X33510400Y9240779D02*
X31488400Y9240779D01*
X34809400Y10480779D02*
X33539400Y10480779D01*
X33750400Y9360779D02*
X33539400Y9360779D01*
X33677400Y9320779D02*
X31321400Y9320779D01*
X34363400Y9840779D02*
X33539400Y9840779D01*
X31459400Y10961779D02*
X30008400Y10961779D01*
X31459400Y11041779D02*
X29988400Y11041779D01*
X33304400Y9160779D02*
X31694400Y9160779D01*
X34979400Y10920779D02*
X33539400Y10920779D01*
X34954400Y10840779D02*
X33539400Y10840779D01*
X31459400Y9520779D02*
X30999400Y9520779D01*
X34594400Y10120779D02*
X33539400Y10120779D01*
X34746400Y10360779D02*
X33539400Y10360779D01*
X31459400Y10920779D02*
X30019400Y10920779D01*
X31459400Y10800779D02*
X30057400Y10800779D01*
X33882400Y9440779D02*
X33539400Y9440779D01*
X31459400Y10680779D02*
X30101400Y10680779D01*
X35049400Y11241779D02*
X33539400Y11241779D01*
X31459400Y11201779D02*
X29956400Y11201779D01*
X35064400Y11361779D02*
X33539400Y11361779D01*
X35035400Y11161779D02*
X33539400Y11161779D01*
X31459400Y10080779D02*
X30434400Y10080779D01*
X34104400Y9600779D02*
X33539400Y9600779D01*
X34723400Y10320779D02*
X33539400Y10320779D01*
X33999400Y9520779D02*
X33539400Y9520779D01*
X33597400Y9280779D02*
X31401400Y9280779D01*
X34053400Y9560779D02*
X33539400Y9560779D01*
X34967400Y10880779D02*
X33539400Y10880779D01*
X31459400Y10200779D02*
X30350400Y10200779D01*
X34927400Y10760779D02*
X33539400Y10760779D01*
X34897400Y10680779D02*
X33539400Y10680779D01*
X31459400Y9480779D02*
X31056400Y9480779D01*
X35068400Y11401779D02*
X33539400Y11401779D01*
X34436400Y9920779D02*
X33539400Y9920779D01*
X34503400Y10000779D02*
X33539400Y10000779D01*
X34913400Y10720779D02*
X33539400Y10720779D01*
X31459400Y10640779D02*
X30117400Y10640779D01*
X31459400Y9720779D02*
X30756400Y9720779D01*
X31459400Y11321779D02*
X29938400Y11321779D01*
X34699400Y10280779D02*
X33539400Y10280779D01*
X33017400Y9080779D02*
X31981400Y9080779D01*
X35078400Y11561779D02*
X29920400Y11561779D01*
X31459400Y10400779D02*
X30231400Y10400779D01*
X31459400Y10440779D02*
X30209400Y10440779D01*
X35010400Y11041779D02*
X33539400Y11041779D01*
X31459400Y10320779D02*
X30275400Y10320779D01*
X34284400Y9760779D02*
X33539400Y9760779D01*
X34400400Y9880779D02*
X33539400Y9880779D01*
X31459400Y10760779D02*
X30071400Y10760779D01*
X34242400Y9720779D02*
X33539400Y9720779D01*
X31459400Y9760779D02*
X30714400Y9760779D01*
X31459400Y9440779D02*
X31116400Y9440779D01*
X35000400Y11001779D02*
X33539400Y11001779D01*
X34881400Y10640779D02*
X33539400Y10640779D01*
X31459400Y11161779D02*
X29963400Y11161779D01*
X34564400Y10080779D02*
X33539400Y10080779D01*
X35027400Y11121779D02*
X33539400Y11121779D01*
X31459400Y9360779D02*
X31248400Y9360779D01*
X31459400Y11241779D02*
X29949400Y11241779D01*
X31459400Y10160779D02*
X30377400Y10160779D01*
X34325400Y9800779D02*
X33539400Y9800779D01*
X33176400Y9120779D02*
X31822400Y9120779D01*
X31459400Y11001779D02*
X29998400Y11001779D01*
X31459400Y9400779D02*
X31180400Y9400779D01*
X34789400Y10440779D02*
X33539400Y10440779D01*
X34864400Y10600779D02*
X33539400Y10600779D01*
X31459400Y10600779D02*
X30134400Y10600779D01*
X31459400Y10480779D02*
X30189400Y10480779D01*
X31459400Y10240779D02*
X30324400Y10240779D01*
X34674400Y10240779D02*
X33539400Y10240779D01*
X31459400Y10560779D02*
X30151400Y10560779D01*
X31459400Y11081779D02*
X29979400Y11081779D01*
X31459400Y9840779D02*
X30635400Y9840779D01*
X31459400Y9960779D02*
X30528400Y9960779D01*
X34828400Y10520779D02*
X33539400Y10520779D01*
X31459400Y9920779D02*
X30562400Y9920779D01*
X34152400Y9640779D02*
X33539400Y9640779D01*
X31459400Y9640779D02*
X30846400Y9640779D01*
X31459400Y10840779D02*
X30044400Y10840779D01*
X34941400Y10800779D02*
X33539400Y10800779D01*
X35075400Y11481779D02*
X29923400Y11481779D01*
X31459400Y10880779D02*
X30031400Y10880779D01*
X34470400Y9960779D02*
X33539400Y9960779D01*
X31459400Y11281779D02*
X29943400Y11281779D01*
X31459400Y9880779D02*
X30598400Y9880779D01*
X33974400Y14446554D02*
X33974400Y13946554D01*
X35019400Y11081779D02*
X33539400Y11081779D01*
X31459400Y9560779D02*
X30945400Y9560779D01*
X31459400Y10280779D02*
X30299400Y10280779D01*
X35055400Y11281779D02*
X33539400Y11281779D01*
X35077400Y11521779D02*
X29921400Y11521779D01*
X34198400Y9680779D02*
X33539400Y9680779D01*
X34621400Y10160779D02*
X33539400Y10160779D01*
X31459400Y10120779D02*
X30404400Y10120779D01*
X31459400Y9800779D02*
X30673400Y9800779D01*
X35119400Y11641779D02*
G75*
G03*
X35119400Y11641779I-2620000J0D01*
G01*
%TO.C,U2*%
X36356000Y9049000D02*
X36356000Y9049000D01*
X36864000Y11589000D02*
X39150000Y11589000D01*
X47024000Y9049000D02*
X47024000Y9049000D01*
X36356000Y9049000D02*
X36356000Y14383000D01*
X39150000Y11589000D02*
X39150000Y9303000D01*
X47024000Y14383000D02*
X47024000Y9049000D01*
X39150000Y9303000D02*
X39150000Y9303000D01*
X47024000Y9049000D02*
X36356000Y9049000D01*
X36356000Y14383000D02*
X47024000Y14383000D01*
X34280000Y8541000D02*
X49580000Y8541000D01*
X49580000Y8541000D02*
X49580000Y49341000D01*
X49580000Y49341000D02*
X34280000Y49341000D01*
X34280000Y49341000D02*
X34280000Y8541000D01*
%TD*%
M02*
