%TF.GenerationSoftware,KiCad,Pcbnew,6.0.7-f9a2dced07~116~ubuntu20.04.1*%
%TF.CreationDate,2022-10-21T17:12:47+02:00*%
%TF.ProjectId,openDTU,6f70656e-4454-4552-9e6b-696361645f70,rev?*%
%TF.SameCoordinates,PX729cd20PY72d18e0*%
%TF.FileFunction,Copper,L2,Bot*%
%TF.FilePolarity,Positive*%
%FSLAX46Y46*%
G04 Gerber Fmt 4.6, Leading zero omitted, Abs format (unit mm)*
G04 Created by KiCad (PCBNEW 6.0.7-f9a2dced07~116~ubuntu20.04.1) date 2022-10-21 17:12:47*
%MOMM*%
%LPD*%
G01*
G04 APERTURE LIST*
%TA.AperFunction,Profile*%
%ADD10C,0.100000*%
%TD*%
%TA.AperFunction,ComponentPad*%
%ADD11C,1.500000*%
%TD*%
%TA.AperFunction,ComponentPad*%
%ADD12C,4.700000*%
%TD*%
%TA.AperFunction,ConnectorPad*%
%ADD13C,7.500000*%
%TD*%
%TA.AperFunction,ComponentPad*%
%ADD14R,1.700000X1.700000*%
%TD*%
%TA.AperFunction,ComponentPad*%
%ADD15O,1.700000X1.700000*%
%TD*%
%TA.AperFunction,ComponentPad*%
%ADD16R,1.600000X1.600000*%
%TD*%
%TA.AperFunction,ComponentPad*%
%ADD17C,1.600000*%
%TD*%
%TA.AperFunction,ComponentPad*%
%ADD18C,1.700000*%
%TD*%
%TA.AperFunction,ViaPad*%
%ADD19C,0.800000*%
%TD*%
%TA.AperFunction,Conductor*%
%ADD20C,0.609600*%
%TD*%
%TA.AperFunction,Conductor*%
%ADD21C,0.400000*%
%TD*%
%TA.AperFunction,Conductor*%
%ADD22C,0.250000*%
%TD*%
G04 APERTURE END LIST*
D10*
X0Y50000000D02*
X50000000Y50000000D01*
X50000000Y50000000D02*
X50000000Y0D01*
X50000000Y0D02*
X0Y0D01*
X0Y0D02*
X0Y50000000D01*
D11*
%TO.P,TP6,1,1*%
%TO.N,/CE*%
X19520000Y17145000D03*
%TD*%
%TO.P,TP5,1,1*%
%TO.N,/IRQ*%
X19520000Y19685000D03*
%TD*%
%TO.P,TP4,1,1*%
%TO.N,/~{CSN}*%
X19520000Y22225000D03*
%TD*%
%TO.P,TP3,1,1*%
%TO.N,/SCK*%
X19520000Y24765000D03*
%TD*%
%TO.P,TP2,1,1*%
%TO.N,/MISO*%
X19520000Y27305000D03*
%TD*%
%TO.P,TP1,1,1*%
%TO.N,/MOSI*%
X19520000Y29845000D03*
%TD*%
D12*
%TO.P,REF\u002A\u002A,1*%
%TO.N,GND*%
X41872000Y35356800D03*
D13*
X41872000Y35356800D03*
%TD*%
D14*
%TO.P,U1,1,3V3*%
%TO.N,+3.3V*%
X1939000Y47657000D03*
D15*
%TO.P,U1,2,EN*%
%TO.N,unconnected-(U1-Pad2)*%
X1939000Y45117000D03*
%TO.P,U1,3,SP*%
%TO.N,unconnected-(U1-Pad3)*%
X1939000Y42577000D03*
%TO.P,U1,4,SN*%
%TO.N,unconnected-(U1-Pad4)*%
X1939000Y40037000D03*
%TO.P,U1,5,G34*%
%TO.N,unconnected-(U1-Pad5)*%
X1939000Y37497000D03*
%TO.P,U1,6,G35*%
%TO.N,unconnected-(U1-Pad6)*%
X1939000Y34957000D03*
%TO.P,U1,7,G32*%
%TO.N,unconnected-(U1-Pad7)*%
X1939000Y32417000D03*
%TO.P,U1,8,G33*%
%TO.N,unconnected-(U1-Pad8)*%
X1939000Y29877000D03*
%TO.P,U1,9,G25*%
%TO.N,unconnected-(U1-Pad9)*%
X1939000Y27337000D03*
%TO.P,U1,10,G26*%
%TO.N,unconnected-(U1-Pad10)*%
X1939000Y24797000D03*
%TO.P,U1,11,G27*%
%TO.N,unconnected-(U1-Pad11)*%
X1939000Y22257000D03*
%TO.P,U1,12,G14*%
%TO.N,unconnected-(U1-Pad12)*%
X1939000Y19717000D03*
%TO.P,U1,13,G12*%
%TO.N,unconnected-(U1-Pad13)*%
X1939000Y17177000D03*
%TO.P,U1,14,GND*%
%TO.N,GND*%
X1939000Y14637000D03*
%TO.P,U1,15,G13*%
%TO.N,unconnected-(U1-Pad15)*%
X1939000Y12097000D03*
%TO.P,U1,16,SD2*%
%TO.N,unconnected-(U1-Pad16)*%
X1939000Y9557000D03*
%TO.P,U1,17,SD3*%
%TO.N,unconnected-(U1-Pad17)*%
X1939000Y7017000D03*
%TO.P,U1,18,CMD*%
%TO.N,unconnected-(U1-Pad18)*%
X1939000Y4477000D03*
%TO.P,U1,19,5V*%
%TO.N,unconnected-(U1-Pad19)*%
X1939000Y1937000D03*
%TO.P,U1,20,CLK*%
%TO.N,unconnected-(U1-Pad20)*%
X27339000Y1937000D03*
%TO.P,U1,21,SD0*%
%TO.N,unconnected-(U1-Pad21)*%
X27339000Y4477000D03*
%TO.P,U1,22,SD1*%
%TO.N,unconnected-(U1-Pad22)*%
X27339000Y7017000D03*
%TO.P,U1,23,G15*%
%TO.N,unconnected-(U1-Pad23)*%
X27339000Y9557000D03*
%TO.P,U1,24,G2*%
%TO.N,unconnected-(U1-Pad24)*%
X27339000Y12097000D03*
%TO.P,U1,25,G0*%
%TO.N,unconnected-(U1-Pad25)*%
X27339000Y14637000D03*
%TO.P,U1,26,G4*%
%TO.N,/CE*%
X27339000Y17177000D03*
%TO.P,U1,27,G16*%
%TO.N,/IRQ*%
X27339000Y19717000D03*
%TO.P,U1,28,G17*%
%TO.N,unconnected-(U1-Pad28)*%
X27339000Y22257000D03*
%TO.P,U1,29,G5*%
%TO.N,/~{CSN}*%
X27339000Y24797000D03*
%TO.P,U1,30,G18*%
%TO.N,/SCK*%
X27339000Y27337000D03*
%TO.P,U1,31,G19*%
%TO.N,/MISO*%
X27339000Y29877000D03*
%TO.P,U1,32,GND*%
%TO.N,GND*%
X27339000Y32417000D03*
%TO.P,U1,33,G21*%
%TO.N,unconnected-(U1-Pad33)*%
X27339000Y34957000D03*
%TO.P,U1,34,RXD*%
%TO.N,unconnected-(U1-Pad34)*%
X27339000Y37497000D03*
%TO.P,U1,35,TXD*%
%TO.N,unconnected-(U1-Pad35)*%
X27339000Y40037000D03*
%TO.P,U1,36,G22*%
%TO.N,unconnected-(U1-Pad36)*%
X27339000Y42577000D03*
%TO.P,U1,37,G23*%
%TO.N,/MOSI*%
X27339000Y45117000D03*
D14*
%TO.P,U1,38,GND*%
%TO.N,GND*%
X27339000Y47657000D03*
%TD*%
D16*
%TO.P,C1,1*%
%TO.N,+3.3V*%
X32499400Y12891779D03*
D17*
%TO.P,C1,2*%
%TO.N,GND*%
X32499400Y10391779D03*
%TD*%
D14*
%TO.P,U2,1,GND*%
%TO.N,GND*%
X37880000Y10319000D03*
D18*
%TO.P,U2,2,VCC*%
%TO.N,+3.3V*%
X37880000Y12859000D03*
%TO.P,U2,3,CE*%
%TO.N,/CE*%
X40420000Y10319000D03*
%TO.P,U2,4,~{CSN}*%
%TO.N,/~{CSN}*%
X40420000Y12859000D03*
%TO.P,U2,5,SCK*%
%TO.N,/SCK*%
X42960000Y10319000D03*
%TO.P,U2,6,MOSI*%
%TO.N,/MOSI*%
X42960000Y12859000D03*
%TO.P,U2,7,MISO*%
%TO.N,/MISO*%
X45500000Y10319000D03*
%TO.P,U2,8,IRQ*%
%TO.N,/IRQ*%
X45500000Y12859000D03*
%TD*%
D19*
%TO.N,GND*%
X22060000Y38862000D03*
X19520000Y38862000D03*
X16980000Y38862000D03*
X14440000Y38862000D03*
X11900000Y38862000D03*
X9360000Y38862000D03*
X6820000Y38862000D03*
X24600000Y1778000D03*
X22060000Y1778000D03*
X19520000Y1778000D03*
X16980000Y1778000D03*
X14440000Y1778000D03*
X11900000Y1778000D03*
X9360000Y1778000D03*
X6820000Y1778000D03*
X5042000Y3302000D03*
X5042000Y5842000D03*
X5042000Y8382000D03*
X5042000Y10922000D03*
X5042000Y13462000D03*
X5042000Y16002000D03*
X5042000Y18542000D03*
X5042000Y21082000D03*
X5042000Y23622000D03*
X5042000Y26162000D03*
X5042000Y28702000D03*
X5042000Y31242000D03*
X5042000Y34036000D03*
X5042000Y36322000D03*
X5042000Y38862000D03*
X48984000Y3556000D03*
X48984000Y6096000D03*
X48984000Y8636000D03*
X48984000Y11176000D03*
X48984000Y13716000D03*
X48984000Y16256000D03*
X48984000Y18796000D03*
X48984000Y21336000D03*
X48984000Y23876000D03*
X48984000Y26416000D03*
X48984000Y28956000D03*
X48984000Y31496000D03*
X48984000Y34036000D03*
X48984000Y36576000D03*
X48984000Y39116000D03*
X48984000Y41656000D03*
X48984000Y44196000D03*
X48984000Y46736000D03*
X29934000Y43942000D03*
X29934000Y41402000D03*
X29934000Y38862000D03*
X29934000Y34036000D03*
X29934000Y36322000D03*
X32728000Y1016000D03*
X35776000Y1016000D03*
X38316000Y1016000D03*
X41110000Y1016000D03*
X43904000Y1016000D03*
X46444000Y1016000D03*
X48984000Y1016000D03*
X29934000Y16002000D03*
X32728000Y49022000D03*
X35776000Y49022000D03*
X38316000Y49022000D03*
X41110000Y49022000D03*
X43904000Y49022000D03*
X46444000Y49022000D03*
X48984000Y49022000D03*
X29934000Y49022000D03*
X25362000Y49022000D03*
X29934000Y46228000D03*
X29934000Y13462000D03*
X25362000Y3302000D03*
X25362000Y5842000D03*
X25362000Y8382000D03*
X25362000Y10922000D03*
X25362000Y13462000D03*
X25362000Y16002000D03*
X35776000Y21082000D03*
X33490000Y23622000D03*
X29934000Y18542000D03*
X25362000Y18542000D03*
X25362000Y46228000D03*
X25362000Y43942000D03*
X25362000Y41402000D03*
X25362000Y38862000D03*
X25362000Y36322000D03*
X25362000Y31242000D03*
X29934000Y31242000D03*
X29934000Y28702000D03*
X25362000Y28702000D03*
X25362000Y26162000D03*
X29934000Y26162000D03*
X29934000Y21082000D03*
X29934000Y23622000D03*
X25362000Y21082000D03*
X25362000Y23622000D03*
%TO.N,/IRQ*%
X45504200Y18364200D03*
X39027200Y18364200D03*
%TO.N,/MISO*%
X41643400Y22783800D03*
X38671600Y22758400D03*
%TD*%
D20*
%TO.N,+3.3V*%
X32532179Y12859000D02*
X32499400Y12891779D01*
X1939000Y47657000D02*
X2597000Y47657000D01*
X3822800Y46431200D02*
X3822800Y1524000D01*
X37880000Y12859000D02*
X32532179Y12859000D01*
X29807000Y11861800D02*
X30836979Y12891779D01*
X29807000Y1346200D02*
X29807000Y11861800D01*
X4788000Y558800D02*
X29019600Y558800D01*
X3822800Y1524000D02*
X4788000Y558800D01*
X2597000Y47657000D02*
X3822800Y46431200D01*
X29019600Y558800D02*
X29807000Y1346200D01*
X30836979Y12891779D02*
X32499400Y12891779D01*
D21*
%TO.N,/IRQ*%
X39027200Y18364200D02*
X45504200Y18364200D01*
D22*
%TO.N,/MISO*%
X41618000Y22758400D02*
X41643400Y22783800D01*
D21*
X38671600Y22758400D02*
X41618000Y22758400D01*
%TD*%
%TA.AperFunction,Conductor*%
%TO.N,GND*%
G36*
X49433621Y49471498D02*
G01*
X49480114Y49417842D01*
X49491500Y49365500D01*
X49491500Y634500D01*
X49471498Y566379D01*
X49417842Y519886D01*
X49365500Y508500D01*
X30423670Y508500D01*
X30355549Y528502D01*
X30309056Y582158D01*
X30298952Y652432D01*
X30328446Y717012D01*
X30334575Y723595D01*
X30375469Y764489D01*
X30376406Y765418D01*
X30436218Y823990D01*
X30436219Y823991D01*
X30441250Y828918D01*
X30445064Y834836D01*
X30445068Y834841D01*
X30464895Y865607D01*
X30472334Y875960D01*
X30495170Y904566D01*
X30499563Y910069D01*
X30502628Y916409D01*
X30502631Y916414D01*
X30514265Y940479D01*
X30521792Y953892D01*
X30536274Y976364D01*
X30536277Y976371D01*
X30540092Y982290D01*
X30555023Y1023311D01*
X30559982Y1035051D01*
X30575911Y1068001D01*
X30575912Y1068003D01*
X30578977Y1074344D01*
X30586577Y1107264D01*
X30590943Y1121999D01*
X30600089Y1147128D01*
X30600091Y1147134D01*
X30602498Y1153749D01*
X30607969Y1197059D01*
X30610203Y1209600D01*
X30620022Y1252130D01*
X30620156Y1290290D01*
X30620165Y1292941D01*
X30620195Y1293834D01*
X30620300Y1294670D01*
X30620300Y1331760D01*
X30620659Y1434592D01*
X30620389Y1435798D01*
X30620300Y1437447D01*
X30620300Y9305717D01*
X31777893Y9305717D01*
X31787189Y9293702D01*
X31838394Y9257848D01*
X31847889Y9252365D01*
X32045347Y9160289D01*
X32055639Y9156543D01*
X32266088Y9100154D01*
X32276881Y9098251D01*
X32493925Y9079262D01*
X32504875Y9079262D01*
X32721919Y9098251D01*
X32732712Y9100154D01*
X32943161Y9156543D01*
X32953453Y9160289D01*
X33150911Y9252365D01*
X33160406Y9257848D01*
X33212448Y9294288D01*
X33220824Y9304767D01*
X33213756Y9318213D01*
X33107638Y9424331D01*
X36522001Y9424331D01*
X36522371Y9417510D01*
X36527895Y9366648D01*
X36531521Y9351396D01*
X36576676Y9230946D01*
X36585214Y9215351D01*
X36661715Y9113276D01*
X36674276Y9100715D01*
X36776351Y9024214D01*
X36791946Y9015676D01*
X36912394Y8970522D01*
X36927649Y8966895D01*
X36978514Y8961369D01*
X36985328Y8961000D01*
X37607885Y8961000D01*
X37623124Y8965475D01*
X37624329Y8966865D01*
X37626000Y8974548D01*
X37626000Y10046885D01*
X37621525Y10062124D01*
X37620135Y10063329D01*
X37612452Y10065000D01*
X36540116Y10065000D01*
X36524877Y10060525D01*
X36523672Y10059135D01*
X36522001Y10051452D01*
X36522001Y9424331D01*
X33107638Y9424331D01*
X32512212Y10019757D01*
X32498268Y10027371D01*
X32496435Y10027240D01*
X32489820Y10022989D01*
X31784323Y9317492D01*
X31777893Y9305717D01*
X30620300Y9305717D01*
X30620300Y10386304D01*
X31186883Y10386304D01*
X31205872Y10169260D01*
X31207775Y10158467D01*
X31264164Y9948018D01*
X31267910Y9937726D01*
X31359986Y9740268D01*
X31365469Y9730773D01*
X31401909Y9678731D01*
X31412388Y9670355D01*
X31425834Y9677423D01*
X32127378Y10378967D01*
X32133756Y10390647D01*
X32863808Y10390647D01*
X32863939Y10388814D01*
X32868190Y10382199D01*
X33573687Y9676702D01*
X33585462Y9670272D01*
X33597477Y9679568D01*
X33633331Y9730773D01*
X33638814Y9740268D01*
X33730890Y9937726D01*
X33734636Y9948018D01*
X33791025Y10158467D01*
X33792928Y10169260D01*
X33811917Y10386304D01*
X33811917Y10397254D01*
X33792928Y10614298D01*
X33791025Y10625091D01*
X33734636Y10835540D01*
X33730890Y10845832D01*
X33638814Y11043290D01*
X33633331Y11052785D01*
X33596891Y11104827D01*
X33586412Y11113203D01*
X33572966Y11106135D01*
X32871422Y10404591D01*
X32863808Y10390647D01*
X32133756Y10390647D01*
X32134992Y10392911D01*
X32134861Y10394744D01*
X32130610Y10401359D01*
X31425113Y11106856D01*
X31413338Y11113286D01*
X31401323Y11103990D01*
X31365469Y11052785D01*
X31359986Y11043290D01*
X31267910Y10845832D01*
X31264164Y10835540D01*
X31207775Y10625091D01*
X31205872Y10614298D01*
X31186883Y10397254D01*
X31186883Y10386304D01*
X30620300Y10386304D01*
X30620300Y11472730D01*
X30640302Y11540851D01*
X30657205Y11561825D01*
X31026333Y11930953D01*
X31088645Y11964979D01*
X31159460Y11959914D01*
X31216296Y11917367D01*
X31233410Y11886086D01*
X31237209Y11875954D01*
X31248785Y11845074D01*
X31336139Y11728518D01*
X31452695Y11641164D01*
X31589084Y11590034D01*
X31632652Y11585301D01*
X31647886Y11583646D01*
X31647889Y11583646D01*
X31651266Y11583279D01*
X31654585Y11583279D01*
X31721510Y11559626D01*
X31757204Y11513623D01*
X31759134Y11514638D01*
X31764842Y11503779D01*
X31765032Y11503534D01*
X31765053Y11503376D01*
X31785044Y11465345D01*
X32486588Y10763801D01*
X32500532Y10756187D01*
X32502365Y10756318D01*
X32508980Y10760569D01*
X33214477Y11466066D01*
X33237271Y11507808D01*
X33239447Y11517808D01*
X33289653Y11568006D01*
X33343214Y11583230D01*
X33344119Y11583279D01*
X33347534Y11583279D01*
X33350930Y11583648D01*
X33350932Y11583648D01*
X33363279Y11584989D01*
X33409716Y11590034D01*
X33546105Y11641164D01*
X33662661Y11728518D01*
X33750015Y11845074D01*
X33761592Y11875954D01*
X33794572Y11963929D01*
X33837213Y12020694D01*
X33903775Y12045394D01*
X33912554Y12045700D01*
X36729546Y12045700D01*
X36797667Y12025698D01*
X36824783Y12002198D01*
X36922865Y11888969D01*
X36922869Y11888965D01*
X36926250Y11885062D01*
X36930225Y11881762D01*
X36930231Y11881756D01*
X36935425Y11877444D01*
X36975059Y11818540D01*
X36976555Y11747559D01*
X36939439Y11687038D01*
X36899168Y11662520D01*
X36791946Y11622324D01*
X36776351Y11613786D01*
X36674276Y11537285D01*
X36661715Y11524724D01*
X36585214Y11422649D01*
X36576676Y11407054D01*
X36531522Y11286606D01*
X36527895Y11271351D01*
X36522369Y11220486D01*
X36522000Y11213672D01*
X36522000Y10591115D01*
X36526475Y10575876D01*
X36527865Y10574671D01*
X36535548Y10573000D01*
X38008000Y10573000D01*
X38076121Y10552998D01*
X38122614Y10499342D01*
X38134000Y10447000D01*
X38134000Y8979116D01*
X38138475Y8963877D01*
X38139865Y8962672D01*
X38147548Y8961001D01*
X38774669Y8961001D01*
X38781490Y8961371D01*
X38832352Y8966895D01*
X38847604Y8970521D01*
X38968054Y9015676D01*
X38983649Y9024214D01*
X39085724Y9100715D01*
X39098285Y9113276D01*
X39174786Y9215351D01*
X39183324Y9230946D01*
X39224225Y9340048D01*
X39266867Y9396812D01*
X39333428Y9421512D01*
X39402777Y9406304D01*
X39437444Y9378316D01*
X39462865Y9348969D01*
X39462869Y9348965D01*
X39466250Y9345062D01*
X39638126Y9202368D01*
X39831000Y9089662D01*
X40039692Y9009970D01*
X40044760Y9008939D01*
X40044763Y9008938D01*
X40152017Y8987117D01*
X40258597Y8965433D01*
X40263772Y8965243D01*
X40263774Y8965243D01*
X40476673Y8957436D01*
X40476677Y8957436D01*
X40481837Y8957247D01*
X40486957Y8957903D01*
X40486959Y8957903D01*
X40698288Y8984975D01*
X40698289Y8984975D01*
X40703416Y8985632D01*
X40708366Y8987117D01*
X40912429Y9048339D01*
X40912434Y9048341D01*
X40917384Y9049826D01*
X41117994Y9148104D01*
X41299860Y9277827D01*
X41340388Y9318213D01*
X41400701Y9378316D01*
X41458096Y9435511D01*
X41495161Y9487092D01*
X41588453Y9616923D01*
X41589776Y9615972D01*
X41636645Y9659143D01*
X41706580Y9671375D01*
X41772026Y9643856D01*
X41799875Y9612006D01*
X41859987Y9513912D01*
X42006250Y9345062D01*
X42178126Y9202368D01*
X42371000Y9089662D01*
X42579692Y9009970D01*
X42584760Y9008939D01*
X42584763Y9008938D01*
X42692017Y8987117D01*
X42798597Y8965433D01*
X42803772Y8965243D01*
X42803774Y8965243D01*
X43016673Y8957436D01*
X43016677Y8957436D01*
X43021837Y8957247D01*
X43026957Y8957903D01*
X43026959Y8957903D01*
X43238288Y8984975D01*
X43238289Y8984975D01*
X43243416Y8985632D01*
X43248366Y8987117D01*
X43452429Y9048339D01*
X43452434Y9048341D01*
X43457384Y9049826D01*
X43657994Y9148104D01*
X43839860Y9277827D01*
X43880388Y9318213D01*
X43940701Y9378316D01*
X43998096Y9435511D01*
X44035161Y9487092D01*
X44128453Y9616923D01*
X44129776Y9615972D01*
X44176645Y9659143D01*
X44246580Y9671375D01*
X44312026Y9643856D01*
X44339875Y9612006D01*
X44399987Y9513912D01*
X44546250Y9345062D01*
X44718126Y9202368D01*
X44911000Y9089662D01*
X45119692Y9009970D01*
X45124760Y9008939D01*
X45124763Y9008938D01*
X45232017Y8987117D01*
X45338597Y8965433D01*
X45343772Y8965243D01*
X45343774Y8965243D01*
X45556673Y8957436D01*
X45556677Y8957436D01*
X45561837Y8957247D01*
X45566957Y8957903D01*
X45566959Y8957903D01*
X45778288Y8984975D01*
X45778289Y8984975D01*
X45783416Y8985632D01*
X45788366Y8987117D01*
X45992429Y9048339D01*
X45992434Y9048341D01*
X45997384Y9049826D01*
X46197994Y9148104D01*
X46379860Y9277827D01*
X46420388Y9318213D01*
X46480701Y9378316D01*
X46538096Y9435511D01*
X46575161Y9487092D01*
X46665435Y9612723D01*
X46668453Y9616923D01*
X46689320Y9659143D01*
X46765136Y9812547D01*
X46765137Y9812549D01*
X46767430Y9817189D01*
X46832370Y10030931D01*
X46861529Y10252410D01*
X46863156Y10319000D01*
X46844852Y10541639D01*
X46790431Y10758298D01*
X46701354Y10963160D01*
X46643373Y11052785D01*
X46582822Y11146383D01*
X46582820Y11146386D01*
X46580014Y11150723D01*
X46429670Y11315949D01*
X46425619Y11319148D01*
X46425615Y11319152D01*
X46258414Y11451200D01*
X46258410Y11451202D01*
X46254359Y11454402D01*
X46213053Y11477204D01*
X46163084Y11527636D01*
X46148312Y11597079D01*
X46173428Y11663484D01*
X46200780Y11690091D01*
X46264719Y11735698D01*
X46379860Y11817827D01*
X46404323Y11842204D01*
X46493382Y11930953D01*
X46538096Y11975511D01*
X46557273Y12002198D01*
X46665435Y12152723D01*
X46668453Y12156923D01*
X46676374Y12172949D01*
X46765136Y12352547D01*
X46765137Y12352549D01*
X46767430Y12357189D01*
X46832370Y12570931D01*
X46861529Y12792410D01*
X46863156Y12859000D01*
X46844852Y13081639D01*
X46790431Y13298298D01*
X46701354Y13503160D01*
X46644939Y13590364D01*
X46582822Y13686383D01*
X46582820Y13686386D01*
X46580014Y13690723D01*
X46429670Y13855949D01*
X46425619Y13859148D01*
X46425615Y13859152D01*
X46258414Y13991200D01*
X46258410Y13991202D01*
X46254359Y13994402D01*
X46058789Y14102362D01*
X46053920Y14104086D01*
X46053916Y14104088D01*
X45853087Y14175205D01*
X45853083Y14175206D01*
X45848212Y14176931D01*
X45843119Y14177838D01*
X45843116Y14177839D01*
X45633373Y14215200D01*
X45633367Y14215201D01*
X45628284Y14216106D01*
X45554452Y14217008D01*
X45410081Y14218772D01*
X45410079Y14218772D01*
X45404911Y14218835D01*
X45184091Y14185045D01*
X44971756Y14115643D01*
X44941443Y14099863D01*
X44789250Y14020636D01*
X44773607Y14012493D01*
X44769474Y14009390D01*
X44769471Y14009388D01*
X44599100Y13881470D01*
X44594965Y13878365D01*
X44591393Y13874627D01*
X44472166Y13749863D01*
X44440629Y13716862D01*
X44333201Y13559379D01*
X44278293Y13514379D01*
X44207768Y13506208D01*
X44144021Y13537462D01*
X44123324Y13561946D01*
X44042822Y13686383D01*
X44042820Y13686386D01*
X44040014Y13690723D01*
X43889670Y13855949D01*
X43885619Y13859148D01*
X43885615Y13859152D01*
X43718414Y13991200D01*
X43718410Y13991202D01*
X43714359Y13994402D01*
X43518789Y14102362D01*
X43513920Y14104086D01*
X43513916Y14104088D01*
X43313087Y14175205D01*
X43313083Y14175206D01*
X43308212Y14176931D01*
X43303119Y14177838D01*
X43303116Y14177839D01*
X43093373Y14215200D01*
X43093367Y14215201D01*
X43088284Y14216106D01*
X43014452Y14217008D01*
X42870081Y14218772D01*
X42870079Y14218772D01*
X42864911Y14218835D01*
X42644091Y14185045D01*
X42431756Y14115643D01*
X42401443Y14099863D01*
X42249250Y14020636D01*
X42233607Y14012493D01*
X42229474Y14009390D01*
X42229471Y14009388D01*
X42059100Y13881470D01*
X42054965Y13878365D01*
X42051393Y13874627D01*
X41932166Y13749863D01*
X41900629Y13716862D01*
X41793201Y13559379D01*
X41738293Y13514379D01*
X41667768Y13506208D01*
X41604021Y13537462D01*
X41583324Y13561946D01*
X41502822Y13686383D01*
X41502820Y13686386D01*
X41500014Y13690723D01*
X41349670Y13855949D01*
X41345619Y13859148D01*
X41345615Y13859152D01*
X41178414Y13991200D01*
X41178410Y13991202D01*
X41174359Y13994402D01*
X40978789Y14102362D01*
X40973920Y14104086D01*
X40973916Y14104088D01*
X40773087Y14175205D01*
X40773083Y14175206D01*
X40768212Y14176931D01*
X40763119Y14177838D01*
X40763116Y14177839D01*
X40553373Y14215200D01*
X40553367Y14215201D01*
X40548284Y14216106D01*
X40474452Y14217008D01*
X40330081Y14218772D01*
X40330079Y14218772D01*
X40324911Y14218835D01*
X40104091Y14185045D01*
X39891756Y14115643D01*
X39861443Y14099863D01*
X39709250Y14020636D01*
X39693607Y14012493D01*
X39689474Y14009390D01*
X39689471Y14009388D01*
X39519100Y13881470D01*
X39514965Y13878365D01*
X39511393Y13874627D01*
X39392166Y13749863D01*
X39360629Y13716862D01*
X39253201Y13559379D01*
X39198293Y13514379D01*
X39127768Y13506208D01*
X39064021Y13537462D01*
X39043324Y13561946D01*
X38962822Y13686383D01*
X38962820Y13686386D01*
X38960014Y13690723D01*
X38809670Y13855949D01*
X38805619Y13859148D01*
X38805615Y13859152D01*
X38638414Y13991200D01*
X38638410Y13991202D01*
X38634359Y13994402D01*
X38438789Y14102362D01*
X38433920Y14104086D01*
X38433916Y14104088D01*
X38233087Y14175205D01*
X38233083Y14175206D01*
X38228212Y14176931D01*
X38223119Y14177838D01*
X38223116Y14177839D01*
X38013373Y14215200D01*
X38013367Y14215201D01*
X38008284Y14216106D01*
X37934452Y14217008D01*
X37790081Y14218772D01*
X37790079Y14218772D01*
X37784911Y14218835D01*
X37564091Y14185045D01*
X37351756Y14115643D01*
X37321443Y14099863D01*
X37169250Y14020636D01*
X37153607Y14012493D01*
X37149474Y14009390D01*
X37149471Y14009388D01*
X36979100Y13881470D01*
X36974965Y13878365D01*
X36927123Y13828301D01*
X36852166Y13749863D01*
X36822231Y13718538D01*
X36822229Y13718537D01*
X36820629Y13716862D01*
X36820283Y13717192D01*
X36764500Y13678655D01*
X36724990Y13672300D01*
X33928299Y13672300D01*
X33860178Y13692302D01*
X33813685Y13745958D01*
X33803036Y13784689D01*
X33801998Y13794240D01*
X33801145Y13802095D01*
X33750015Y13938484D01*
X33662661Y14055040D01*
X33546105Y14142394D01*
X33409716Y14193524D01*
X33347534Y14200279D01*
X31651266Y14200279D01*
X31589084Y14193524D01*
X31452695Y14142394D01*
X31336139Y14055040D01*
X31248785Y13938484D01*
X31197655Y13802095D01*
X31197404Y13799785D01*
X31163413Y13740287D01*
X31100458Y13707466D01*
X31076048Y13705079D01*
X30846196Y13705079D01*
X30844876Y13705086D01*
X30843768Y13705098D01*
X30754270Y13706035D01*
X30747388Y13704547D01*
X30747387Y13704547D01*
X30711607Y13696812D01*
X30699029Y13694753D01*
X30662661Y13690673D01*
X30662652Y13690671D01*
X30655654Y13689886D01*
X30645595Y13686383D01*
X30623748Y13678776D01*
X30608941Y13674614D01*
X30598239Y13672300D01*
X30575928Y13667476D01*
X30569543Y13664499D01*
X30569541Y13664498D01*
X30566462Y13663062D01*
X30536365Y13649028D01*
X30524572Y13644239D01*
X30483340Y13629880D01*
X30477365Y13626146D01*
X30477362Y13626145D01*
X30454689Y13611978D01*
X30441172Y13604639D01*
X30410560Y13590364D01*
X30385574Y13570983D01*
X30376069Y13563610D01*
X30365615Y13556317D01*
X30328603Y13533190D01*
X30323604Y13528225D01*
X30323602Y13528224D01*
X30299635Y13504423D01*
X30298997Y13503826D01*
X30298326Y13503306D01*
X30272068Y13477048D01*
X30220822Y13426158D01*
X30199133Y13404620D01*
X30198473Y13403579D01*
X30197364Y13402344D01*
X29238531Y12443511D01*
X29237594Y12442582D01*
X29172750Y12379082D01*
X29168936Y12373164D01*
X29168932Y12373159D01*
X29149105Y12342393D01*
X29141666Y12332040D01*
X29127646Y12314478D01*
X29114437Y12297931D01*
X29111372Y12291591D01*
X29111369Y12291586D01*
X29099735Y12267521D01*
X29092208Y12254108D01*
X29077726Y12231636D01*
X29077723Y12231629D01*
X29073908Y12225710D01*
X29071498Y12219090D01*
X29071498Y12219089D01*
X29058979Y12184693D01*
X29054019Y12172952D01*
X29035023Y12133656D01*
X29027423Y12100736D01*
X29023057Y12086001D01*
X29013911Y12060872D01*
X29013909Y12060866D01*
X29011502Y12054251D01*
X29010620Y12047268D01*
X29006031Y12010941D01*
X29003797Y11998400D01*
X28993978Y11955870D01*
X28993953Y11948824D01*
X28993953Y11948821D01*
X28993835Y11915059D01*
X28993805Y11914166D01*
X28993700Y11913330D01*
X28993700Y11876394D01*
X28993699Y11875954D01*
X28993448Y11803977D01*
X28993341Y11773408D01*
X28993611Y11772202D01*
X28993700Y11770553D01*
X28993700Y1735270D01*
X28973698Y1667149D01*
X28956795Y1646175D01*
X28890144Y1579524D01*
X28827832Y1545498D01*
X28757017Y1550563D01*
X28700181Y1593110D01*
X28675370Y1659630D01*
X28676127Y1685066D01*
X28683654Y1742233D01*
X28700529Y1870410D01*
X28700917Y1886287D01*
X28702074Y1933635D01*
X28702074Y1933639D01*
X28702156Y1937000D01*
X28683852Y2159639D01*
X28629431Y2376298D01*
X28540354Y2581160D01*
X28419014Y2768723D01*
X28268670Y2933949D01*
X28264619Y2937148D01*
X28264615Y2937152D01*
X28097414Y3069200D01*
X28097410Y3069202D01*
X28093359Y3072402D01*
X28052053Y3095204D01*
X28002084Y3145636D01*
X27987312Y3215079D01*
X28012428Y3281484D01*
X28039780Y3308091D01*
X28083603Y3339350D01*
X28218860Y3435827D01*
X28377096Y3593511D01*
X28436594Y3676311D01*
X28504435Y3770723D01*
X28507453Y3774923D01*
X28606430Y3975189D01*
X28671370Y4188931D01*
X28700529Y4410410D01*
X28702156Y4477000D01*
X28683852Y4699639D01*
X28629431Y4916298D01*
X28540354Y5121160D01*
X28419014Y5308723D01*
X28268670Y5473949D01*
X28264619Y5477148D01*
X28264615Y5477152D01*
X28097414Y5609200D01*
X28097410Y5609202D01*
X28093359Y5612402D01*
X28052053Y5635204D01*
X28002084Y5685636D01*
X27987312Y5755079D01*
X28012428Y5821484D01*
X28039780Y5848091D01*
X28083603Y5879350D01*
X28218860Y5975827D01*
X28377096Y6133511D01*
X28436594Y6216311D01*
X28504435Y6310723D01*
X28507453Y6314923D01*
X28606430Y6515189D01*
X28671370Y6728931D01*
X28700529Y6950410D01*
X28702156Y7017000D01*
X28683852Y7239639D01*
X28629431Y7456298D01*
X28540354Y7661160D01*
X28419014Y7848723D01*
X28268670Y8013949D01*
X28264619Y8017148D01*
X28264615Y8017152D01*
X28097414Y8149200D01*
X28097410Y8149202D01*
X28093359Y8152402D01*
X28052053Y8175204D01*
X28002084Y8225636D01*
X27987312Y8295079D01*
X28012428Y8361484D01*
X28039780Y8388091D01*
X28083603Y8419350D01*
X28218860Y8515827D01*
X28377096Y8673511D01*
X28436594Y8756311D01*
X28504435Y8850723D01*
X28507453Y8854923D01*
X28558025Y8957247D01*
X28604136Y9050547D01*
X28604137Y9050549D01*
X28606430Y9055189D01*
X28671370Y9268931D01*
X28700529Y9490410D01*
X28702156Y9557000D01*
X28683852Y9779639D01*
X28629431Y9996298D01*
X28540354Y10201160D01*
X28442574Y10352305D01*
X28421822Y10384383D01*
X28421820Y10384386D01*
X28419014Y10388723D01*
X28268670Y10553949D01*
X28264619Y10557148D01*
X28264615Y10557152D01*
X28097414Y10689200D01*
X28097410Y10689202D01*
X28093359Y10692402D01*
X28052053Y10715204D01*
X28002084Y10765636D01*
X27987312Y10835079D01*
X28012428Y10901484D01*
X28039780Y10928091D01*
X28104673Y10974379D01*
X28218860Y11055827D01*
X28377096Y11213511D01*
X28436594Y11296311D01*
X28504435Y11390723D01*
X28507453Y11394923D01*
X28513449Y11407054D01*
X28604136Y11590547D01*
X28604137Y11590549D01*
X28606430Y11595189D01*
X28671370Y11808931D01*
X28700529Y12030410D01*
X28700611Y12033760D01*
X28702074Y12093635D01*
X28702074Y12093639D01*
X28702156Y12097000D01*
X28683852Y12319639D01*
X28629431Y12536298D01*
X28540354Y12741160D01*
X28419014Y12928723D01*
X28268670Y13093949D01*
X28264619Y13097148D01*
X28264615Y13097152D01*
X28097414Y13229200D01*
X28097410Y13229202D01*
X28093359Y13232402D01*
X28052053Y13255204D01*
X28002084Y13305636D01*
X27987312Y13375079D01*
X28012428Y13441484D01*
X28039780Y13468091D01*
X28104673Y13514379D01*
X28218860Y13595827D01*
X28236728Y13613632D01*
X28318845Y13695463D01*
X28377096Y13753511D01*
X28436594Y13836311D01*
X28504435Y13930723D01*
X28507453Y13934923D01*
X28512765Y13945670D01*
X28604136Y14130547D01*
X28604137Y14130549D01*
X28606430Y14135189D01*
X28671370Y14348931D01*
X28700529Y14570410D01*
X28702156Y14637000D01*
X28683852Y14859639D01*
X28629431Y15076298D01*
X28540354Y15281160D01*
X28419014Y15468723D01*
X28268670Y15633949D01*
X28264619Y15637148D01*
X28264615Y15637152D01*
X28097414Y15769200D01*
X28097410Y15769202D01*
X28093359Y15772402D01*
X28052053Y15795204D01*
X28002084Y15845636D01*
X27987312Y15915079D01*
X28012428Y15981484D01*
X28039780Y16008091D01*
X28104284Y16054101D01*
X28218860Y16135827D01*
X28377096Y16293511D01*
X28436594Y16376311D01*
X28504435Y16470723D01*
X28507453Y16474923D01*
X28606430Y16675189D01*
X28671370Y16888931D01*
X28700529Y17110410D01*
X28700611Y17113760D01*
X28702074Y17173635D01*
X28702074Y17173639D01*
X28702156Y17177000D01*
X28683852Y17399639D01*
X28629431Y17616298D01*
X28540354Y17821160D01*
X28452451Y17957038D01*
X28421822Y18004383D01*
X28421820Y18004386D01*
X28419014Y18008723D01*
X28268670Y18173949D01*
X28264619Y18177148D01*
X28264615Y18177152D01*
X28097414Y18309200D01*
X28097410Y18309202D01*
X28093359Y18312402D01*
X28052053Y18335204D01*
X28023323Y18364200D01*
X38113696Y18364200D01*
X38114386Y18357635D01*
X38131010Y18199470D01*
X38133658Y18174272D01*
X38192673Y17992644D01*
X38288160Y17827256D01*
X38292578Y17822349D01*
X38292579Y17822348D01*
X38411525Y17690245D01*
X38415947Y17685334D01*
X38510967Y17616298D01*
X38564951Y17577076D01*
X38570448Y17573082D01*
X38576476Y17570398D01*
X38576478Y17570397D01*
X38738881Y17498091D01*
X38744912Y17495406D01*
X38838312Y17475553D01*
X38925256Y17457072D01*
X38925261Y17457072D01*
X38931713Y17455700D01*
X39122687Y17455700D01*
X39129139Y17457072D01*
X39129144Y17457072D01*
X39216088Y17475553D01*
X39309488Y17495406D01*
X39315519Y17498091D01*
X39477922Y17570397D01*
X39477924Y17570398D01*
X39483952Y17573082D01*
X39489450Y17577076D01*
X39564544Y17631636D01*
X39631411Y17655494D01*
X39638605Y17655700D01*
X44892795Y17655700D01*
X44960916Y17635698D01*
X44966856Y17631636D01*
X45041951Y17577076D01*
X45047448Y17573082D01*
X45053476Y17570398D01*
X45053478Y17570397D01*
X45215881Y17498091D01*
X45221912Y17495406D01*
X45315312Y17475553D01*
X45402256Y17457072D01*
X45402261Y17457072D01*
X45408713Y17455700D01*
X45599687Y17455700D01*
X45606139Y17457072D01*
X45606144Y17457072D01*
X45693088Y17475553D01*
X45786488Y17495406D01*
X45792519Y17498091D01*
X45954922Y17570397D01*
X45954924Y17570398D01*
X45960952Y17573082D01*
X45966450Y17577076D01*
X46020433Y17616298D01*
X46115453Y17685334D01*
X46119875Y17690245D01*
X46238821Y17822348D01*
X46238822Y17822349D01*
X46243240Y17827256D01*
X46338727Y17992644D01*
X46397742Y18174272D01*
X46400391Y18199470D01*
X46417014Y18357635D01*
X46417704Y18364200D01*
X46403654Y18497880D01*
X46398432Y18547565D01*
X46398432Y18547567D01*
X46397742Y18554128D01*
X46338727Y18735756D01*
X46243240Y18901144D01*
X46233545Y18911912D01*
X46119875Y19038155D01*
X46119874Y19038156D01*
X46115453Y19043066D01*
X45960952Y19155318D01*
X45954924Y19158002D01*
X45954922Y19158003D01*
X45792519Y19230309D01*
X45792518Y19230309D01*
X45786488Y19232994D01*
X45692725Y19252924D01*
X45606144Y19271328D01*
X45606139Y19271328D01*
X45599687Y19272700D01*
X45408713Y19272700D01*
X45402261Y19271328D01*
X45402256Y19271328D01*
X45315675Y19252924D01*
X45221912Y19232994D01*
X45215882Y19230309D01*
X45215881Y19230309D01*
X45053478Y19158003D01*
X45053476Y19158002D01*
X45047448Y19155318D01*
X45042107Y19151438D01*
X45042106Y19151437D01*
X44966856Y19096764D01*
X44899989Y19072906D01*
X44892795Y19072700D01*
X39638605Y19072700D01*
X39570484Y19092702D01*
X39564544Y19096764D01*
X39489294Y19151437D01*
X39489293Y19151438D01*
X39483952Y19155318D01*
X39477924Y19158002D01*
X39477922Y19158003D01*
X39315519Y19230309D01*
X39315518Y19230309D01*
X39309488Y19232994D01*
X39215725Y19252924D01*
X39129144Y19271328D01*
X39129139Y19271328D01*
X39122687Y19272700D01*
X38931713Y19272700D01*
X38925261Y19271328D01*
X38925256Y19271328D01*
X38838675Y19252924D01*
X38744912Y19232994D01*
X38738882Y19230309D01*
X38738881Y19230309D01*
X38576478Y19158003D01*
X38576476Y19158002D01*
X38570448Y19155318D01*
X38415947Y19043066D01*
X38411526Y19038156D01*
X38411525Y19038155D01*
X38297856Y18911912D01*
X38288160Y18901144D01*
X38192673Y18735756D01*
X38133658Y18554128D01*
X38132968Y18547567D01*
X38132968Y18547565D01*
X38127746Y18497880D01*
X38113696Y18364200D01*
X28023323Y18364200D01*
X28002084Y18385636D01*
X27987312Y18455079D01*
X28012428Y18521484D01*
X28039780Y18548091D01*
X28104284Y18594101D01*
X28218860Y18675827D01*
X28377096Y18833511D01*
X28436594Y18916311D01*
X28504435Y19010723D01*
X28507453Y19014923D01*
X28606430Y19215189D01*
X28671370Y19428931D01*
X28700529Y19650410D01*
X28700611Y19653760D01*
X28702074Y19713635D01*
X28702074Y19713639D01*
X28702156Y19717000D01*
X28683852Y19939639D01*
X28629431Y20156298D01*
X28540354Y20361160D01*
X28452451Y20497038D01*
X28421822Y20544383D01*
X28421820Y20544386D01*
X28419014Y20548723D01*
X28268670Y20713949D01*
X28264619Y20717148D01*
X28264615Y20717152D01*
X28097414Y20849200D01*
X28097410Y20849202D01*
X28093359Y20852402D01*
X28052053Y20875204D01*
X28002084Y20925636D01*
X27987312Y20995079D01*
X28012428Y21061484D01*
X28039780Y21088091D01*
X28104284Y21134101D01*
X28218860Y21215827D01*
X28377096Y21373511D01*
X28436594Y21456311D01*
X28504435Y21550723D01*
X28507453Y21554923D01*
X28606430Y21755189D01*
X28642923Y21875300D01*
X28669865Y21963977D01*
X28669865Y21963979D01*
X28671370Y21968931D01*
X28700529Y22190410D01*
X28701168Y22216548D01*
X28702074Y22253635D01*
X28702074Y22253639D01*
X28702156Y22257000D01*
X28683852Y22479639D01*
X28629431Y22696298D01*
X28602428Y22758400D01*
X37758096Y22758400D01*
X37758786Y22751835D01*
X37774699Y22600435D01*
X37778058Y22568472D01*
X37837073Y22386844D01*
X37932560Y22221456D01*
X37936978Y22216549D01*
X37936979Y22216548D01*
X37960514Y22190410D01*
X38060347Y22079534D01*
X38084160Y22062233D01*
X38205518Y21974061D01*
X38214848Y21967282D01*
X38220876Y21964598D01*
X38220878Y21964597D01*
X38332262Y21915006D01*
X38389312Y21889606D01*
X38482712Y21869753D01*
X38569656Y21851272D01*
X38569661Y21851272D01*
X38576113Y21849900D01*
X38767087Y21849900D01*
X38773539Y21851272D01*
X38773544Y21851272D01*
X38860488Y21869753D01*
X38953888Y21889606D01*
X39010938Y21915006D01*
X39122322Y21964597D01*
X39122324Y21964598D01*
X39128352Y21967282D01*
X39137683Y21974061D01*
X39208944Y22025836D01*
X39275811Y22049694D01*
X39283005Y22049900D01*
X41066954Y22049900D01*
X41141014Y22025836D01*
X41181301Y21996566D01*
X41181306Y21996563D01*
X41186648Y21992682D01*
X41192676Y21989998D01*
X41192678Y21989997D01*
X41355081Y21917691D01*
X41361112Y21915006D01*
X41454513Y21895153D01*
X41541456Y21876672D01*
X41541461Y21876672D01*
X41547913Y21875300D01*
X41738887Y21875300D01*
X41745339Y21876672D01*
X41745344Y21876672D01*
X41832287Y21895153D01*
X41925688Y21915006D01*
X41931719Y21917691D01*
X42094122Y21989997D01*
X42094124Y21989998D01*
X42100152Y21992682D01*
X42110664Y22000319D01*
X42178622Y22049694D01*
X42254653Y22104934D01*
X42364718Y22227174D01*
X42378021Y22241948D01*
X42378022Y22241949D01*
X42382440Y22246856D01*
X42477927Y22412244D01*
X42536942Y22593872D01*
X42556904Y22783800D01*
X42542626Y22919646D01*
X42537632Y22967165D01*
X42537632Y22967167D01*
X42536942Y22973728D01*
X42477927Y23155356D01*
X42382440Y23320744D01*
X42304426Y23407388D01*
X42259075Y23457755D01*
X42259074Y23457756D01*
X42254653Y23462666D01*
X42135112Y23549518D01*
X42105494Y23571037D01*
X42105493Y23571038D01*
X42100152Y23574918D01*
X42094124Y23577602D01*
X42094122Y23577603D01*
X41931719Y23649909D01*
X41931718Y23649909D01*
X41925688Y23652594D01*
X41824506Y23674101D01*
X41745344Y23690928D01*
X41745339Y23690928D01*
X41738887Y23692300D01*
X41547913Y23692300D01*
X41541461Y23690928D01*
X41541456Y23690928D01*
X41462294Y23674101D01*
X41361112Y23652594D01*
X41355082Y23649909D01*
X41355081Y23649909D01*
X41192678Y23577603D01*
X41192676Y23577602D01*
X41186648Y23574918D01*
X41181307Y23571038D01*
X41181306Y23571037D01*
X41071096Y23490964D01*
X41004229Y23467106D01*
X40997035Y23466900D01*
X39283005Y23466900D01*
X39214884Y23486902D01*
X39208944Y23490964D01*
X39133694Y23545637D01*
X39133693Y23545638D01*
X39128352Y23549518D01*
X39122324Y23552202D01*
X39122322Y23552203D01*
X38959919Y23624509D01*
X38959918Y23624509D01*
X38953888Y23627194D01*
X38847023Y23649909D01*
X38773544Y23665528D01*
X38773539Y23665528D01*
X38767087Y23666900D01*
X38576113Y23666900D01*
X38569661Y23665528D01*
X38569656Y23665528D01*
X38496177Y23649909D01*
X38389312Y23627194D01*
X38383282Y23624509D01*
X38383281Y23624509D01*
X38220878Y23552203D01*
X38220876Y23552202D01*
X38214848Y23549518D01*
X38209507Y23545638D01*
X38209506Y23545637D01*
X38181381Y23525203D01*
X38060347Y23437266D01*
X38055926Y23432356D01*
X38055925Y23432355D01*
X38036241Y23410493D01*
X37932560Y23295344D01*
X37837073Y23129956D01*
X37778058Y22948328D01*
X37777368Y22941767D01*
X37777368Y22941765D01*
X37767376Y22846697D01*
X37758096Y22758400D01*
X28602428Y22758400D01*
X28540354Y22901160D01*
X28452451Y23037038D01*
X28421822Y23084383D01*
X28421820Y23084386D01*
X28419014Y23088723D01*
X28268670Y23253949D01*
X28264619Y23257148D01*
X28264615Y23257152D01*
X28097414Y23389200D01*
X28097410Y23389202D01*
X28093359Y23392402D01*
X28052053Y23415204D01*
X28002084Y23465636D01*
X27987312Y23535079D01*
X28012428Y23601484D01*
X28039780Y23628091D01*
X28104284Y23674101D01*
X28218860Y23755827D01*
X28377096Y23913511D01*
X28436594Y23996311D01*
X28504435Y24090723D01*
X28507453Y24094923D01*
X28606430Y24295189D01*
X28671370Y24508931D01*
X28700529Y24730410D01*
X28700611Y24733760D01*
X28702074Y24793635D01*
X28702074Y24793639D01*
X28702156Y24797000D01*
X28683852Y25019639D01*
X28629431Y25236298D01*
X28540354Y25441160D01*
X28452451Y25577038D01*
X28421822Y25624383D01*
X28421820Y25624386D01*
X28419014Y25628723D01*
X28268670Y25793949D01*
X28264619Y25797148D01*
X28264615Y25797152D01*
X28097414Y25929200D01*
X28097410Y25929202D01*
X28093359Y25932402D01*
X28052053Y25955204D01*
X28002084Y26005636D01*
X27987312Y26075079D01*
X28012428Y26141484D01*
X28039780Y26168091D01*
X28104284Y26214101D01*
X28218860Y26295827D01*
X28377096Y26453511D01*
X28436594Y26536311D01*
X28504435Y26630723D01*
X28507453Y26634923D01*
X28606430Y26835189D01*
X28671370Y27048931D01*
X28700529Y27270410D01*
X28700611Y27273760D01*
X28702074Y27333635D01*
X28702074Y27333639D01*
X28702156Y27337000D01*
X28683852Y27559639D01*
X28629431Y27776298D01*
X28540354Y27981160D01*
X28452451Y28117038D01*
X28421822Y28164383D01*
X28421820Y28164386D01*
X28419014Y28168723D01*
X28268670Y28333949D01*
X28264619Y28337148D01*
X28264615Y28337152D01*
X28097414Y28469200D01*
X28097410Y28469202D01*
X28093359Y28472402D01*
X28052053Y28495204D01*
X28002084Y28545636D01*
X27987312Y28615079D01*
X28012428Y28681484D01*
X28039780Y28708091D01*
X28104284Y28754101D01*
X28218860Y28835827D01*
X28377096Y28993511D01*
X28436594Y29076311D01*
X28504435Y29170723D01*
X28507453Y29174923D01*
X28606430Y29375189D01*
X28671370Y29588931D01*
X28700529Y29810410D01*
X28700611Y29813760D01*
X28702074Y29873635D01*
X28702074Y29873639D01*
X28702156Y29877000D01*
X28683852Y30099639D01*
X28629431Y30316298D01*
X28540354Y30521160D01*
X28452451Y30657038D01*
X28421822Y30704383D01*
X28421820Y30704386D01*
X28419014Y30708723D01*
X28268670Y30873949D01*
X28264619Y30877148D01*
X28264615Y30877152D01*
X28097414Y31009200D01*
X28097410Y31009202D01*
X28093359Y31012402D01*
X28051569Y31035471D01*
X28001598Y31085903D01*
X27986826Y31155346D01*
X28011942Y31221752D01*
X28039294Y31248359D01*
X28214328Y31373208D01*
X28222200Y31379861D01*
X28373052Y31530188D01*
X28379730Y31538035D01*
X28504003Y31710980D01*
X28509313Y31719817D01*
X28603670Y31910733D01*
X28607469Y31920328D01*
X28669377Y32124090D01*
X28671555Y32134163D01*
X28672986Y32145038D01*
X28670775Y32159222D01*
X28657617Y32163000D01*
X26022225Y32163000D01*
X26008694Y32159027D01*
X26007257Y32149034D01*
X26037565Y32014554D01*
X26040645Y32004725D01*
X26120770Y31807397D01*
X26125413Y31798206D01*
X26236694Y31616612D01*
X26242777Y31608301D01*
X26382213Y31447333D01*
X26389580Y31440117D01*
X26553434Y31304084D01*
X26561881Y31298169D01*
X26630969Y31257797D01*
X26679693Y31206158D01*
X26692764Y31136375D01*
X26666033Y31070604D01*
X26625584Y31037248D01*
X26612607Y31030493D01*
X26608474Y31027390D01*
X26608471Y31027388D01*
X26438100Y30899470D01*
X26433965Y30896365D01*
X26279629Y30734862D01*
X26153743Y30550320D01*
X26059688Y30347695D01*
X25999989Y30132430D01*
X25976251Y29910305D01*
X25976548Y29905152D01*
X25976548Y29905149D01*
X25982011Y29810410D01*
X25989110Y29687285D01*
X25990247Y29682239D01*
X25990248Y29682233D01*
X26010119Y29594061D01*
X26038222Y29469361D01*
X26122266Y29262384D01*
X26124965Y29257980D01*
X26236291Y29076312D01*
X26238987Y29071912D01*
X26385250Y28903062D01*
X26557126Y28760368D01*
X26577234Y28748618D01*
X26630445Y28717524D01*
X26679169Y28665886D01*
X26692240Y28596103D01*
X26665509Y28530331D01*
X26625055Y28496973D01*
X26612607Y28490493D01*
X26608474Y28487390D01*
X26608471Y28487388D01*
X26438100Y28359470D01*
X26433965Y28356365D01*
X26279629Y28194862D01*
X26153743Y28010320D01*
X26059688Y27807695D01*
X25999989Y27592430D01*
X25976251Y27370305D01*
X25976548Y27365152D01*
X25976548Y27365149D01*
X25982011Y27270410D01*
X25989110Y27147285D01*
X25990247Y27142239D01*
X25990248Y27142233D01*
X26010119Y27054061D01*
X26038222Y26929361D01*
X26122266Y26722384D01*
X26124965Y26717980D01*
X26236291Y26536312D01*
X26238987Y26531912D01*
X26385250Y26363062D01*
X26557126Y26220368D01*
X26577234Y26208618D01*
X26630445Y26177524D01*
X26679169Y26125886D01*
X26692240Y26056103D01*
X26665509Y25990331D01*
X26625055Y25956973D01*
X26612607Y25950493D01*
X26608474Y25947390D01*
X26608471Y25947388D01*
X26438100Y25819470D01*
X26433965Y25816365D01*
X26279629Y25654862D01*
X26153743Y25470320D01*
X26059688Y25267695D01*
X25999989Y25052430D01*
X25976251Y24830305D01*
X25976548Y24825152D01*
X25976548Y24825149D01*
X25982011Y24730410D01*
X25989110Y24607285D01*
X25990247Y24602239D01*
X25990248Y24602233D01*
X26010119Y24514061D01*
X26038222Y24389361D01*
X26122266Y24182384D01*
X26124965Y24177980D01*
X26236291Y23996312D01*
X26238987Y23991912D01*
X26385250Y23823062D01*
X26557126Y23680368D01*
X26577234Y23668618D01*
X26630445Y23637524D01*
X26679169Y23585886D01*
X26692240Y23516103D01*
X26665509Y23450331D01*
X26625055Y23416973D01*
X26612607Y23410493D01*
X26608474Y23407390D01*
X26608471Y23407388D01*
X26438100Y23279470D01*
X26433965Y23276365D01*
X26279629Y23114862D01*
X26153743Y22930320D01*
X26138003Y22896410D01*
X26073941Y22758400D01*
X26059688Y22727695D01*
X25999989Y22512430D01*
X25976251Y22290305D01*
X25976548Y22285152D01*
X25976548Y22285149D01*
X25982011Y22190410D01*
X25989110Y22067285D01*
X25990247Y22062239D01*
X25990248Y22062233D01*
X26005047Y21996566D01*
X26038222Y21849361D01*
X26122266Y21642384D01*
X26124965Y21637980D01*
X26236291Y21456312D01*
X26238987Y21451912D01*
X26385250Y21283062D01*
X26557126Y21140368D01*
X26577234Y21128618D01*
X26630445Y21097524D01*
X26679169Y21045886D01*
X26692240Y20976103D01*
X26665509Y20910331D01*
X26625055Y20876973D01*
X26612607Y20870493D01*
X26608474Y20867390D01*
X26608471Y20867388D01*
X26438100Y20739470D01*
X26433965Y20736365D01*
X26279629Y20574862D01*
X26153743Y20390320D01*
X26059688Y20187695D01*
X25999989Y19972430D01*
X25976251Y19750305D01*
X25976548Y19745152D01*
X25976548Y19745149D01*
X25982011Y19650410D01*
X25989110Y19527285D01*
X25990247Y19522239D01*
X25990248Y19522233D01*
X26010119Y19434061D01*
X26038222Y19309361D01*
X26122266Y19102384D01*
X26173019Y19019562D01*
X26236291Y18916312D01*
X26238987Y18911912D01*
X26385250Y18743062D01*
X26557126Y18600368D01*
X26577234Y18588618D01*
X26630445Y18557524D01*
X26679169Y18505886D01*
X26692240Y18436103D01*
X26665509Y18370331D01*
X26625055Y18336973D01*
X26612607Y18330493D01*
X26608474Y18327390D01*
X26608471Y18327388D01*
X26438100Y18199470D01*
X26433965Y18196365D01*
X26279629Y18034862D01*
X26153743Y17850320D01*
X26138003Y17816410D01*
X26063404Y17655700D01*
X26059688Y17647695D01*
X25999989Y17432430D01*
X25976251Y17210305D01*
X25976548Y17205152D01*
X25976548Y17205149D01*
X25982011Y17110410D01*
X25989110Y16987285D01*
X25990247Y16982239D01*
X25990248Y16982233D01*
X26010119Y16894061D01*
X26038222Y16769361D01*
X26122266Y16562384D01*
X26124965Y16557980D01*
X26236291Y16376312D01*
X26238987Y16371912D01*
X26385250Y16203062D01*
X26557126Y16060368D01*
X26577232Y16048619D01*
X26630445Y16017524D01*
X26679169Y15965886D01*
X26692240Y15896103D01*
X26665509Y15830331D01*
X26625055Y15796973D01*
X26612607Y15790493D01*
X26608474Y15787390D01*
X26608471Y15787388D01*
X26584247Y15769200D01*
X26433965Y15656365D01*
X26279629Y15494862D01*
X26276715Y15490590D01*
X26276714Y15490589D01*
X26264404Y15472543D01*
X26153743Y15310320D01*
X26059688Y15107695D01*
X25999989Y14892430D01*
X25976251Y14670305D01*
X25976548Y14665152D01*
X25976548Y14665149D01*
X25982011Y14570410D01*
X25989110Y14447285D01*
X25990247Y14442239D01*
X25990248Y14442233D01*
X26010119Y14354061D01*
X26038222Y14229361D01*
X26076461Y14135189D01*
X26111000Y14050130D01*
X26122266Y14022384D01*
X26124965Y14017980D01*
X26210521Y13878365D01*
X26238987Y13831912D01*
X26385250Y13663062D01*
X26557126Y13520368D01*
X26586574Y13503160D01*
X26630445Y13477524D01*
X26679169Y13425886D01*
X26692240Y13356103D01*
X26665509Y13290331D01*
X26625055Y13256973D01*
X26612607Y13250493D01*
X26608474Y13247390D01*
X26608471Y13247388D01*
X26438100Y13119470D01*
X26433965Y13116365D01*
X26279629Y12954862D01*
X26153743Y12770320D01*
X26059688Y12567695D01*
X25999989Y12352430D01*
X25976251Y12130305D01*
X25976548Y12125152D01*
X25976548Y12125149D01*
X25985387Y11971856D01*
X25989110Y11907285D01*
X25990247Y11902239D01*
X25990248Y11902233D01*
X26009946Y11814829D01*
X26038222Y11689361D01*
X26122266Y11482384D01*
X26137885Y11456896D01*
X26236291Y11296312D01*
X26238987Y11291912D01*
X26385250Y11123062D01*
X26557126Y10980368D01*
X26581358Y10966208D01*
X26630445Y10937524D01*
X26679169Y10885886D01*
X26692240Y10816103D01*
X26665509Y10750331D01*
X26625055Y10716973D01*
X26612607Y10710493D01*
X26608474Y10707390D01*
X26608471Y10707388D01*
X26438100Y10579470D01*
X26433965Y10576365D01*
X26279629Y10414862D01*
X26276715Y10410590D01*
X26276714Y10410589D01*
X26216524Y10322354D01*
X26153743Y10230320D01*
X26138003Y10196410D01*
X26068596Y10046885D01*
X26059688Y10027695D01*
X25999989Y9812430D01*
X25976251Y9590305D01*
X25976548Y9585152D01*
X25976548Y9585149D01*
X25988474Y9378316D01*
X25989110Y9367285D01*
X25990247Y9362239D01*
X25990248Y9362233D01*
X26009946Y9274829D01*
X26038222Y9149361D01*
X26122266Y8942384D01*
X26124965Y8937980D01*
X26236291Y8756312D01*
X26238987Y8751912D01*
X26385250Y8583062D01*
X26557126Y8440368D01*
X26613946Y8407165D01*
X26630445Y8397524D01*
X26679169Y8345886D01*
X26692240Y8276103D01*
X26665509Y8210331D01*
X26625055Y8176973D01*
X26612607Y8170493D01*
X26608474Y8167390D01*
X26608471Y8167388D01*
X26438100Y8039470D01*
X26433965Y8036365D01*
X26279629Y7874862D01*
X26153743Y7690320D01*
X26059688Y7487695D01*
X25999989Y7272430D01*
X25976251Y7050305D01*
X25976548Y7045152D01*
X25976548Y7045149D01*
X25982011Y6950410D01*
X25989110Y6827285D01*
X25990247Y6822239D01*
X25990248Y6822233D01*
X26010119Y6734061D01*
X26038222Y6609361D01*
X26122266Y6402384D01*
X26124965Y6397980D01*
X26236291Y6216312D01*
X26238987Y6211912D01*
X26385250Y6043062D01*
X26557126Y5900368D01*
X26613946Y5867165D01*
X26630445Y5857524D01*
X26679169Y5805886D01*
X26692240Y5736103D01*
X26665509Y5670331D01*
X26625055Y5636973D01*
X26612607Y5630493D01*
X26608474Y5627390D01*
X26608471Y5627388D01*
X26438100Y5499470D01*
X26433965Y5496365D01*
X26279629Y5334862D01*
X26153743Y5150320D01*
X26059688Y4947695D01*
X25999989Y4732430D01*
X25976251Y4510305D01*
X25976548Y4505152D01*
X25976548Y4505149D01*
X25982011Y4410410D01*
X25989110Y4287285D01*
X25990247Y4282239D01*
X25990248Y4282233D01*
X26010119Y4194061D01*
X26038222Y4069361D01*
X26122266Y3862384D01*
X26124965Y3857980D01*
X26236291Y3676312D01*
X26238987Y3671912D01*
X26385250Y3503062D01*
X26557126Y3360368D01*
X26613946Y3327165D01*
X26630445Y3317524D01*
X26679169Y3265886D01*
X26692240Y3196103D01*
X26665509Y3130331D01*
X26625055Y3096973D01*
X26612607Y3090493D01*
X26608474Y3087390D01*
X26608471Y3087388D01*
X26438100Y2959470D01*
X26433965Y2956365D01*
X26279629Y2794862D01*
X26153743Y2610320D01*
X26059688Y2407695D01*
X25999989Y2192430D01*
X25976251Y1970305D01*
X25976548Y1965152D01*
X25976548Y1965149D01*
X25982011Y1870410D01*
X25989110Y1747285D01*
X25990247Y1742239D01*
X25990248Y1742233D01*
X26038222Y1529361D01*
X26036775Y1529035D01*
X26037942Y1464805D01*
X26000651Y1404391D01*
X25936617Y1373729D01*
X25916421Y1372100D01*
X5177070Y1372100D01*
X5108949Y1392102D01*
X5087975Y1409005D01*
X4673005Y1823975D01*
X4638979Y1886287D01*
X4636100Y1913070D01*
X4636100Y17145000D01*
X18256693Y17145000D01*
X18275885Y16925629D01*
X18332880Y16712924D01*
X18335205Y16707939D01*
X18423618Y16518334D01*
X18423621Y16518329D01*
X18425944Y16513347D01*
X18429100Y16508840D01*
X18429101Y16508838D01*
X18521898Y16376311D01*
X18552251Y16332962D01*
X18707962Y16177251D01*
X18888346Y16050944D01*
X19087924Y15957880D01*
X19300629Y15900885D01*
X19520000Y15881693D01*
X19739371Y15900885D01*
X19952076Y15957880D01*
X20151654Y16050944D01*
X20332038Y16177251D01*
X20487749Y16332962D01*
X20518103Y16376311D01*
X20610899Y16508838D01*
X20610900Y16508840D01*
X20614056Y16513347D01*
X20616379Y16518329D01*
X20616382Y16518334D01*
X20704795Y16707939D01*
X20707120Y16712924D01*
X20764115Y16925629D01*
X20783307Y17145000D01*
X20764115Y17364371D01*
X20707120Y17577076D01*
X20618699Y17766697D01*
X20616382Y17771666D01*
X20616379Y17771671D01*
X20614056Y17776653D01*
X20610899Y17781162D01*
X20490908Y17952527D01*
X20490906Y17952530D01*
X20487749Y17957038D01*
X20332038Y18112749D01*
X20151654Y18239056D01*
X20146672Y18241379D01*
X20146667Y18241382D01*
X20019232Y18300805D01*
X19965947Y18347722D01*
X19946486Y18415999D01*
X19967028Y18483959D01*
X20019232Y18529195D01*
X20146667Y18588618D01*
X20146672Y18588621D01*
X20151654Y18590944D01*
X20332038Y18717251D01*
X20487749Y18872962D01*
X20503479Y18895426D01*
X20610899Y19048838D01*
X20610900Y19048840D01*
X20614056Y19053347D01*
X20616379Y19058329D01*
X20616382Y19058334D01*
X20696574Y19230309D01*
X20707120Y19252924D01*
X20764115Y19465629D01*
X20783307Y19685000D01*
X20764115Y19904371D01*
X20707120Y20117076D01*
X20618699Y20306697D01*
X20616382Y20311666D01*
X20616379Y20311671D01*
X20614056Y20316653D01*
X20610899Y20321162D01*
X20490908Y20492527D01*
X20490906Y20492530D01*
X20487749Y20497038D01*
X20332038Y20652749D01*
X20151654Y20779056D01*
X20146672Y20781379D01*
X20146667Y20781382D01*
X20019232Y20840805D01*
X19965947Y20887722D01*
X19946486Y20955999D01*
X19967028Y21023959D01*
X20019232Y21069195D01*
X20146667Y21128618D01*
X20146672Y21128621D01*
X20151654Y21130944D01*
X20332038Y21257251D01*
X20487749Y21412962D01*
X20518103Y21456311D01*
X20610899Y21588838D01*
X20610900Y21588840D01*
X20614056Y21593347D01*
X20616379Y21598329D01*
X20616382Y21598334D01*
X20704795Y21787939D01*
X20707120Y21792924D01*
X20764115Y22005629D01*
X20783307Y22225000D01*
X20764115Y22444371D01*
X20707120Y22657076D01*
X20618699Y22846697D01*
X20616382Y22851666D01*
X20616379Y22851671D01*
X20614056Y22856653D01*
X20610899Y22861162D01*
X20490908Y23032527D01*
X20490906Y23032530D01*
X20487749Y23037038D01*
X20332038Y23192749D01*
X20151654Y23319056D01*
X20146672Y23321379D01*
X20146667Y23321382D01*
X20019232Y23380805D01*
X19965947Y23427722D01*
X19946486Y23495999D01*
X19967028Y23563959D01*
X20019232Y23609195D01*
X20146667Y23668618D01*
X20146672Y23668621D01*
X20151654Y23670944D01*
X20332038Y23797251D01*
X20487749Y23952962D01*
X20518103Y23996311D01*
X20610899Y24128838D01*
X20610900Y24128840D01*
X20614056Y24133347D01*
X20616379Y24138329D01*
X20616382Y24138334D01*
X20704795Y24327939D01*
X20707120Y24332924D01*
X20764115Y24545629D01*
X20783307Y24765000D01*
X20764115Y24984371D01*
X20707120Y25197076D01*
X20618699Y25386697D01*
X20616382Y25391666D01*
X20616379Y25391671D01*
X20614056Y25396653D01*
X20610899Y25401162D01*
X20490908Y25572527D01*
X20490906Y25572530D01*
X20487749Y25577038D01*
X20332038Y25732749D01*
X20151654Y25859056D01*
X20146672Y25861379D01*
X20146667Y25861382D01*
X20019232Y25920805D01*
X19965947Y25967722D01*
X19946486Y26035999D01*
X19967028Y26103959D01*
X20019232Y26149195D01*
X20146667Y26208618D01*
X20146672Y26208621D01*
X20151654Y26210944D01*
X20332038Y26337251D01*
X20487749Y26492962D01*
X20518103Y26536311D01*
X20610899Y26668838D01*
X20610900Y26668840D01*
X20614056Y26673347D01*
X20616379Y26678329D01*
X20616382Y26678334D01*
X20704795Y26867939D01*
X20707120Y26872924D01*
X20764115Y27085629D01*
X20783307Y27305000D01*
X20764115Y27524371D01*
X20707120Y27737076D01*
X20618699Y27926697D01*
X20616382Y27931666D01*
X20616379Y27931671D01*
X20614056Y27936653D01*
X20610899Y27941162D01*
X20490908Y28112527D01*
X20490906Y28112530D01*
X20487749Y28117038D01*
X20332038Y28272749D01*
X20151654Y28399056D01*
X20146672Y28401379D01*
X20146667Y28401382D01*
X20019232Y28460805D01*
X19965947Y28507722D01*
X19946486Y28575999D01*
X19967028Y28643959D01*
X20019232Y28689195D01*
X20146667Y28748618D01*
X20146672Y28748621D01*
X20151654Y28750944D01*
X20332038Y28877251D01*
X20487749Y29032962D01*
X20518103Y29076311D01*
X20610899Y29208838D01*
X20610900Y29208840D01*
X20614056Y29213347D01*
X20616379Y29218329D01*
X20616382Y29218334D01*
X20704795Y29407939D01*
X20707120Y29412924D01*
X20764115Y29625629D01*
X20783307Y29845000D01*
X20764115Y30064371D01*
X20707120Y30277076D01*
X20618699Y30466697D01*
X20616382Y30471666D01*
X20616379Y30471671D01*
X20614056Y30476653D01*
X20610899Y30481162D01*
X20490908Y30652527D01*
X20490906Y30652530D01*
X20487749Y30657038D01*
X20332038Y30812749D01*
X20151654Y30939056D01*
X19952076Y31032120D01*
X19739371Y31089115D01*
X19520000Y31108307D01*
X19300629Y31089115D01*
X19087924Y31032120D01*
X19038772Y31009200D01*
X18893334Y30941382D01*
X18893329Y30941379D01*
X18888347Y30939056D01*
X18883840Y30935900D01*
X18883838Y30935899D01*
X18712473Y30815908D01*
X18712470Y30815906D01*
X18707962Y30812749D01*
X18552251Y30657038D01*
X18549094Y30652530D01*
X18549092Y30652527D01*
X18429101Y30481162D01*
X18425944Y30476653D01*
X18423621Y30471671D01*
X18423618Y30471666D01*
X18421301Y30466697D01*
X18332880Y30277076D01*
X18275885Y30064371D01*
X18256693Y29845000D01*
X18275885Y29625629D01*
X18332880Y29412924D01*
X18335205Y29407939D01*
X18423618Y29218334D01*
X18423621Y29218329D01*
X18425944Y29213347D01*
X18429100Y29208840D01*
X18429101Y29208838D01*
X18521898Y29076311D01*
X18552251Y29032962D01*
X18707962Y28877251D01*
X18888346Y28750944D01*
X18893328Y28748621D01*
X18893333Y28748618D01*
X19020768Y28689195D01*
X19074053Y28642278D01*
X19093514Y28574001D01*
X19072972Y28506041D01*
X19020768Y28460805D01*
X18893334Y28401382D01*
X18893329Y28401379D01*
X18888347Y28399056D01*
X18883840Y28395900D01*
X18883838Y28395899D01*
X18712473Y28275908D01*
X18712470Y28275906D01*
X18707962Y28272749D01*
X18552251Y28117038D01*
X18549094Y28112530D01*
X18549092Y28112527D01*
X18429101Y27941162D01*
X18425944Y27936653D01*
X18423621Y27931671D01*
X18423618Y27931666D01*
X18421301Y27926697D01*
X18332880Y27737076D01*
X18275885Y27524371D01*
X18256693Y27305000D01*
X18275885Y27085629D01*
X18332880Y26872924D01*
X18335205Y26867939D01*
X18423618Y26678334D01*
X18423621Y26678329D01*
X18425944Y26673347D01*
X18429100Y26668840D01*
X18429101Y26668838D01*
X18521898Y26536311D01*
X18552251Y26492962D01*
X18707962Y26337251D01*
X18888346Y26210944D01*
X18893328Y26208621D01*
X18893333Y26208618D01*
X19020768Y26149195D01*
X19074053Y26102278D01*
X19093514Y26034001D01*
X19072972Y25966041D01*
X19020768Y25920805D01*
X18893334Y25861382D01*
X18893329Y25861379D01*
X18888347Y25859056D01*
X18883840Y25855900D01*
X18883838Y25855899D01*
X18712473Y25735908D01*
X18712470Y25735906D01*
X18707962Y25732749D01*
X18552251Y25577038D01*
X18549094Y25572530D01*
X18549092Y25572527D01*
X18429101Y25401162D01*
X18425944Y25396653D01*
X18423621Y25391671D01*
X18423618Y25391666D01*
X18421301Y25386697D01*
X18332880Y25197076D01*
X18275885Y24984371D01*
X18256693Y24765000D01*
X18275885Y24545629D01*
X18332880Y24332924D01*
X18335205Y24327939D01*
X18423618Y24138334D01*
X18423621Y24138329D01*
X18425944Y24133347D01*
X18429100Y24128840D01*
X18429101Y24128838D01*
X18521898Y23996311D01*
X18552251Y23952962D01*
X18707962Y23797251D01*
X18888346Y23670944D01*
X18893328Y23668621D01*
X18893333Y23668618D01*
X19020768Y23609195D01*
X19074053Y23562278D01*
X19093514Y23494001D01*
X19072972Y23426041D01*
X19020768Y23380805D01*
X18893334Y23321382D01*
X18893329Y23321379D01*
X18888347Y23319056D01*
X18883840Y23315900D01*
X18883838Y23315899D01*
X18712473Y23195908D01*
X18712470Y23195906D01*
X18707962Y23192749D01*
X18552251Y23037038D01*
X18549094Y23032530D01*
X18549092Y23032527D01*
X18429101Y22861162D01*
X18425944Y22856653D01*
X18423621Y22851671D01*
X18423618Y22851666D01*
X18421301Y22846697D01*
X18332880Y22657076D01*
X18275885Y22444371D01*
X18256693Y22225000D01*
X18275885Y22005629D01*
X18332880Y21792924D01*
X18335205Y21787939D01*
X18423618Y21598334D01*
X18423621Y21598329D01*
X18425944Y21593347D01*
X18429100Y21588840D01*
X18429101Y21588838D01*
X18521898Y21456311D01*
X18552251Y21412962D01*
X18707962Y21257251D01*
X18888346Y21130944D01*
X18893328Y21128621D01*
X18893333Y21128618D01*
X19020768Y21069195D01*
X19074053Y21022278D01*
X19093514Y20954001D01*
X19072972Y20886041D01*
X19020768Y20840805D01*
X18893334Y20781382D01*
X18893329Y20781379D01*
X18888347Y20779056D01*
X18883840Y20775900D01*
X18883838Y20775899D01*
X18712473Y20655908D01*
X18712470Y20655906D01*
X18707962Y20652749D01*
X18552251Y20497038D01*
X18549094Y20492530D01*
X18549092Y20492527D01*
X18429101Y20321162D01*
X18425944Y20316653D01*
X18423621Y20311671D01*
X18423618Y20311666D01*
X18421301Y20306697D01*
X18332880Y20117076D01*
X18275885Y19904371D01*
X18256693Y19685000D01*
X18275885Y19465629D01*
X18332880Y19252924D01*
X18343426Y19230309D01*
X18423618Y19058334D01*
X18423621Y19058329D01*
X18425944Y19053347D01*
X18429100Y19048840D01*
X18429101Y19048838D01*
X18536522Y18895426D01*
X18552251Y18872962D01*
X18707962Y18717251D01*
X18888346Y18590944D01*
X18893328Y18588621D01*
X18893333Y18588618D01*
X19020768Y18529195D01*
X19074053Y18482278D01*
X19093514Y18414001D01*
X19072972Y18346041D01*
X19020768Y18300805D01*
X18893334Y18241382D01*
X18893329Y18241379D01*
X18888347Y18239056D01*
X18883840Y18235900D01*
X18883838Y18235899D01*
X18712473Y18115908D01*
X18712470Y18115906D01*
X18707962Y18112749D01*
X18552251Y17957038D01*
X18549094Y17952530D01*
X18549092Y17952527D01*
X18429101Y17781162D01*
X18425944Y17776653D01*
X18423621Y17771671D01*
X18423618Y17771666D01*
X18421301Y17766697D01*
X18332880Y17577076D01*
X18275885Y17364371D01*
X18256693Y17145000D01*
X4636100Y17145000D01*
X4636100Y32170366D01*
X39050921Y32170366D01*
X39057708Y32160665D01*
X39257023Y31990435D01*
X39261709Y31986800D01*
X39585442Y31759277D01*
X39590432Y31756110D01*
X39934141Y31560061D01*
X39939422Y31557371D01*
X40300053Y31394540D01*
X40305544Y31392366D01*
X40679906Y31264193D01*
X40685590Y31262541D01*
X41070347Y31170169D01*
X41076162Y31169060D01*
X41467889Y31113310D01*
X41473802Y31112751D01*
X41869031Y31094112D01*
X41874969Y31094112D01*
X42270198Y31112751D01*
X42276111Y31113310D01*
X42667838Y31169060D01*
X42673653Y31170169D01*
X43058410Y31262541D01*
X43064094Y31264193D01*
X43438456Y31392366D01*
X43443947Y31394540D01*
X43804578Y31557371D01*
X43809859Y31560061D01*
X44153568Y31756110D01*
X44158558Y31759277D01*
X44482291Y31986800D01*
X44486977Y31990435D01*
X44684722Y32159324D01*
X44693152Y32172238D01*
X44687145Y32182445D01*
X43741592Y33127998D01*
X43741588Y33128001D01*
X41884810Y34984780D01*
X41870869Y34992392D01*
X41869034Y34992261D01*
X41862420Y34988010D01*
X40002424Y33128013D01*
X40002396Y33127986D01*
X39058313Y32183903D01*
X39050921Y32170366D01*
X4636100Y32170366D01*
X4636100Y34990305D01*
X25976251Y34990305D01*
X25976548Y34985152D01*
X25976548Y34985149D01*
X25982011Y34890410D01*
X25989110Y34767285D01*
X25990247Y34762239D01*
X25990248Y34762233D01*
X26010119Y34674061D01*
X26038222Y34549361D01*
X26122266Y34342384D01*
X26124965Y34337980D01*
X26236291Y34156312D01*
X26238987Y34151912D01*
X26385250Y33983062D01*
X26557126Y33840368D01*
X26613946Y33807165D01*
X26630955Y33797226D01*
X26679679Y33745588D01*
X26692750Y33675805D01*
X26666019Y33610033D01*
X26625562Y33576673D01*
X26617457Y33572454D01*
X26608738Y33566964D01*
X26438433Y33439095D01*
X26430726Y33432252D01*
X26283590Y33278283D01*
X26277104Y33270273D01*
X26157098Y33094351D01*
X26152000Y33085377D01*
X26062338Y32892217D01*
X26058775Y32882530D01*
X26003389Y32682817D01*
X26004912Y32674393D01*
X26017292Y32671000D01*
X28657344Y32671000D01*
X28670875Y32674973D01*
X28672180Y32684053D01*
X28630214Y32851125D01*
X28626894Y32860876D01*
X28541972Y33056186D01*
X28537105Y33065261D01*
X28421426Y33244074D01*
X28415136Y33252243D01*
X28271806Y33409760D01*
X28264273Y33416785D01*
X28097139Y33548778D01*
X28088556Y33554480D01*
X28051602Y33574880D01*
X28001631Y33625313D01*
X27986859Y33694755D01*
X28011975Y33761161D01*
X28039327Y33787768D01*
X28066521Y33807165D01*
X28218860Y33915827D01*
X28377096Y34073511D01*
X28436594Y34156311D01*
X28504435Y34250723D01*
X28507453Y34254923D01*
X28606430Y34455189D01*
X28671370Y34668931D01*
X28700529Y34890410D01*
X28702156Y34957000D01*
X28683852Y35179639D01*
X28629431Y35396298D01*
X28589676Y35487727D01*
X37611322Y35487727D01*
X37617537Y35092121D01*
X37617911Y35086171D01*
X37661327Y34692905D01*
X37662257Y34687034D01*
X37742494Y34299588D01*
X37743970Y34293840D01*
X37860316Y33915649D01*
X37862320Y33910084D01*
X38013745Y33544512D01*
X38016267Y33539153D01*
X38201411Y33189477D01*
X38204436Y33184360D01*
X38421669Y32853656D01*
X38425159Y32848853D01*
X38672292Y32540380D01*
X38685130Y32533106D01*
X38686439Y32533179D01*
X38693852Y32537862D01*
X39643200Y33487210D01*
X39643201Y33487212D01*
X41499980Y35343990D01*
X41506357Y35355669D01*
X42236408Y35355669D01*
X42236539Y35353834D01*
X42240790Y35347220D01*
X44100787Y33487224D01*
X44100800Y33487210D01*
X45047271Y32540739D01*
X45061215Y32533125D01*
X45062524Y32533218D01*
X45069360Y32537688D01*
X45071454Y32540063D01*
X45318841Y32848853D01*
X45322331Y32853656D01*
X45539564Y33184360D01*
X45542589Y33189477D01*
X45727733Y33539153D01*
X45730255Y33544512D01*
X45881680Y33910084D01*
X45883684Y33915649D01*
X46000030Y34293840D01*
X46001506Y34299588D01*
X46081743Y34687034D01*
X46082673Y34692905D01*
X46126145Y35086676D01*
X46126494Y35091604D01*
X46134750Y35354332D01*
X46134711Y35359270D01*
X46116049Y35754998D01*
X46115490Y35760911D01*
X46059740Y36152638D01*
X46058631Y36158453D01*
X45966259Y36543210D01*
X45964607Y36548894D01*
X45836434Y36923256D01*
X45834260Y36928747D01*
X45671429Y37289378D01*
X45668739Y37294659D01*
X45472690Y37638368D01*
X45469523Y37643358D01*
X45242000Y37967091D01*
X45238365Y37971777D01*
X45069476Y38169522D01*
X45056562Y38177952D01*
X45046355Y38171945D01*
X44100800Y37226390D01*
X44100799Y37226388D01*
X42244020Y35369610D01*
X42236408Y35355669D01*
X41506357Y35355669D01*
X41507592Y35357931D01*
X41507461Y35359766D01*
X41503210Y35366380D01*
X39643213Y37226376D01*
X39643200Y37226390D01*
X38699402Y38170188D01*
X38685458Y38177802D01*
X38685205Y38177784D01*
X38676463Y38171870D01*
X38589436Y38076228D01*
X38585649Y38071650D01*
X38348088Y37755249D01*
X38344748Y37750335D01*
X38138001Y37412955D01*
X38135153Y37407775D01*
X37961072Y37052430D01*
X37958723Y37047003D01*
X37818858Y36676861D01*
X37817026Y36671222D01*
X37712622Y36289585D01*
X37711323Y36283772D01*
X37643295Y35893989D01*
X37642554Y35888126D01*
X37611507Y35493653D01*
X37611322Y35487727D01*
X28589676Y35487727D01*
X28540354Y35601160D01*
X28494076Y35672695D01*
X28421822Y35784383D01*
X28421820Y35784386D01*
X28419014Y35788723D01*
X28268670Y35953949D01*
X28264619Y35957148D01*
X28264615Y35957152D01*
X28097414Y36089200D01*
X28097410Y36089202D01*
X28093359Y36092402D01*
X28052053Y36115204D01*
X28002084Y36165636D01*
X27987312Y36235079D01*
X28012428Y36301484D01*
X28039780Y36328091D01*
X28083603Y36359350D01*
X28218860Y36455827D01*
X28377096Y36613511D01*
X28436594Y36696311D01*
X28504435Y36790723D01*
X28507453Y36794923D01*
X28606430Y36995189D01*
X28671370Y37208931D01*
X28700529Y37430410D01*
X28702156Y37497000D01*
X28683852Y37719639D01*
X28629431Y37936298D01*
X28540354Y38141160D01*
X28419014Y38328723D01*
X28268670Y38493949D01*
X28264619Y38497148D01*
X28264615Y38497152D01*
X28209302Y38540836D01*
X39050939Y38540836D01*
X39050945Y38540583D01*
X39056445Y38531565D01*
X40002408Y37585602D01*
X40002412Y37585599D01*
X41132183Y36455827D01*
X41859190Y35728820D01*
X41873131Y35721208D01*
X41874966Y35721339D01*
X41881580Y35725590D01*
X43741576Y37585587D01*
X43741604Y37585614D01*
X44688061Y38532071D01*
X44695675Y38546015D01*
X44695582Y38547324D01*
X44691112Y38554160D01*
X44688737Y38556254D01*
X44379947Y38803641D01*
X44375144Y38807131D01*
X44044440Y39024364D01*
X44039323Y39027389D01*
X43689647Y39212533D01*
X43684288Y39215055D01*
X43318716Y39366480D01*
X43313151Y39368484D01*
X42934960Y39484830D01*
X42929212Y39486306D01*
X42541766Y39566543D01*
X42535895Y39567473D01*
X42142629Y39610889D01*
X42136679Y39611263D01*
X41741073Y39617478D01*
X41735147Y39617293D01*
X41340674Y39586246D01*
X41334811Y39585505D01*
X40945028Y39517477D01*
X40939215Y39516178D01*
X40557578Y39411774D01*
X40551939Y39409942D01*
X40181797Y39270077D01*
X40176370Y39267728D01*
X39821025Y39093647D01*
X39815845Y39090799D01*
X39478471Y38884056D01*
X39473551Y38880712D01*
X39157150Y38643151D01*
X39152572Y38639364D01*
X39059199Y38554402D01*
X39050939Y38540836D01*
X28209302Y38540836D01*
X28097414Y38629200D01*
X28097410Y38629202D01*
X28093359Y38632402D01*
X28052053Y38655204D01*
X28002084Y38705636D01*
X27987312Y38775079D01*
X28012428Y38841484D01*
X28039780Y38868091D01*
X28083603Y38899350D01*
X28218860Y38995827D01*
X28250533Y39027389D01*
X28373435Y39149863D01*
X28377096Y39153511D01*
X28436594Y39236311D01*
X28504435Y39330723D01*
X28507453Y39334923D01*
X28523050Y39366480D01*
X28604136Y39530547D01*
X28604137Y39530549D01*
X28606430Y39535189D01*
X28671370Y39748931D01*
X28700529Y39970410D01*
X28701374Y40005000D01*
X28702074Y40033635D01*
X28702074Y40033639D01*
X28702156Y40037000D01*
X28683852Y40259639D01*
X28629431Y40476298D01*
X28540354Y40681160D01*
X28419014Y40868723D01*
X28268670Y41033949D01*
X28264619Y41037148D01*
X28264615Y41037152D01*
X28097414Y41169200D01*
X28097410Y41169202D01*
X28093359Y41172402D01*
X28052053Y41195204D01*
X28002084Y41245636D01*
X27987312Y41315079D01*
X28012428Y41381484D01*
X28039780Y41408091D01*
X28083603Y41439350D01*
X28218860Y41535827D01*
X28377096Y41693511D01*
X28436594Y41776311D01*
X28504435Y41870723D01*
X28507453Y41874923D01*
X28606430Y42075189D01*
X28671370Y42288931D01*
X28700529Y42510410D01*
X28702156Y42577000D01*
X28683852Y42799639D01*
X28629431Y43016298D01*
X28540354Y43221160D01*
X28419014Y43408723D01*
X28268670Y43573949D01*
X28264619Y43577148D01*
X28264615Y43577152D01*
X28097414Y43709200D01*
X28097410Y43709202D01*
X28093359Y43712402D01*
X28052053Y43735204D01*
X28002084Y43785636D01*
X27987312Y43855079D01*
X28012428Y43921484D01*
X28039780Y43948091D01*
X28083603Y43979350D01*
X28218860Y44075827D01*
X28377096Y44233511D01*
X28436594Y44316311D01*
X28504435Y44410723D01*
X28507453Y44414923D01*
X28606430Y44615189D01*
X28671370Y44828931D01*
X28700529Y45050410D01*
X28702156Y45117000D01*
X28683852Y45339639D01*
X28629431Y45556298D01*
X28540354Y45761160D01*
X28419014Y45948723D01*
X28415540Y45952541D01*
X28415533Y45952550D01*
X28271435Y46110912D01*
X28240383Y46174758D01*
X28248779Y46245256D01*
X28293956Y46300024D01*
X28320400Y46313693D01*
X28427052Y46353675D01*
X28442649Y46362214D01*
X28544724Y46438715D01*
X28557285Y46451276D01*
X28633786Y46553351D01*
X28642324Y46568946D01*
X28687478Y46689394D01*
X28691105Y46704649D01*
X28696631Y46755514D01*
X28697000Y46762328D01*
X28697000Y47384885D01*
X28692525Y47400124D01*
X28691135Y47401329D01*
X28683452Y47403000D01*
X25999116Y47403000D01*
X25983877Y47398525D01*
X25982672Y47397135D01*
X25981001Y47389452D01*
X25981001Y46762331D01*
X25981371Y46755510D01*
X25986895Y46704648D01*
X25990521Y46689396D01*
X26035676Y46568946D01*
X26044214Y46553351D01*
X26120715Y46451276D01*
X26133276Y46438715D01*
X26235351Y46362214D01*
X26250946Y46353676D01*
X26359827Y46312858D01*
X26416591Y46270216D01*
X26441291Y46203655D01*
X26426083Y46134306D01*
X26406691Y46107825D01*
X26283200Y45978599D01*
X26279629Y45974862D01*
X26153743Y45790320D01*
X26059688Y45587695D01*
X25999989Y45372430D01*
X25976251Y45150305D01*
X25976548Y45145152D01*
X25976548Y45145149D01*
X25982011Y45050410D01*
X25989110Y44927285D01*
X25990247Y44922239D01*
X25990248Y44922233D01*
X26010119Y44834061D01*
X26038222Y44709361D01*
X26122266Y44502384D01*
X26124965Y44497980D01*
X26236291Y44316312D01*
X26238987Y44311912D01*
X26385250Y44143062D01*
X26557126Y44000368D01*
X26613946Y43967165D01*
X26630445Y43957524D01*
X26679169Y43905886D01*
X26692240Y43836103D01*
X26665509Y43770331D01*
X26625055Y43736973D01*
X26612607Y43730493D01*
X26608474Y43727390D01*
X26608471Y43727388D01*
X26438100Y43599470D01*
X26433965Y43596365D01*
X26279629Y43434862D01*
X26153743Y43250320D01*
X26059688Y43047695D01*
X25999989Y42832430D01*
X25976251Y42610305D01*
X25976548Y42605152D01*
X25976548Y42605149D01*
X25982011Y42510410D01*
X25989110Y42387285D01*
X25990247Y42382239D01*
X25990248Y42382233D01*
X26010119Y42294061D01*
X26038222Y42169361D01*
X26122266Y41962384D01*
X26124965Y41957980D01*
X26236291Y41776312D01*
X26238987Y41771912D01*
X26385250Y41603062D01*
X26557126Y41460368D01*
X26613946Y41427165D01*
X26630445Y41417524D01*
X26679169Y41365886D01*
X26692240Y41296103D01*
X26665509Y41230331D01*
X26625055Y41196973D01*
X26612607Y41190493D01*
X26608474Y41187390D01*
X26608471Y41187388D01*
X26438100Y41059470D01*
X26433965Y41056365D01*
X26279629Y40894862D01*
X26153743Y40710320D01*
X26059688Y40507695D01*
X25999989Y40292430D01*
X25976251Y40070305D01*
X25976548Y40065152D01*
X25976548Y40065149D01*
X25987281Y39879000D01*
X25989110Y39847285D01*
X25990247Y39842239D01*
X25990248Y39842233D01*
X26010119Y39754061D01*
X26038222Y39629361D01*
X26122266Y39422384D01*
X26140532Y39392576D01*
X26236291Y39236312D01*
X26238987Y39231912D01*
X26385250Y39063062D01*
X26557126Y38920368D01*
X26613946Y38887165D01*
X26630445Y38877524D01*
X26679169Y38825886D01*
X26692240Y38756103D01*
X26665509Y38690331D01*
X26625055Y38656973D01*
X26612607Y38650493D01*
X26608474Y38647390D01*
X26608471Y38647388D01*
X26438100Y38519470D01*
X26433965Y38516365D01*
X26279629Y38354862D01*
X26153743Y38170320D01*
X26059688Y37967695D01*
X25999989Y37752430D01*
X25976251Y37530305D01*
X25976548Y37525152D01*
X25976548Y37525149D01*
X25982011Y37430410D01*
X25989110Y37307285D01*
X25990247Y37302239D01*
X25990248Y37302233D01*
X26007341Y37226390D01*
X26038222Y37089361D01*
X26122266Y36882384D01*
X26124965Y36877980D01*
X26236291Y36696312D01*
X26238987Y36691912D01*
X26385250Y36523062D01*
X26557126Y36380368D01*
X26613946Y36347165D01*
X26630445Y36337524D01*
X26679169Y36285886D01*
X26692240Y36216103D01*
X26665509Y36150331D01*
X26625055Y36116973D01*
X26612607Y36110493D01*
X26608474Y36107390D01*
X26608471Y36107388D01*
X26438100Y35979470D01*
X26433965Y35976365D01*
X26279629Y35814862D01*
X26276715Y35810590D01*
X26276714Y35810589D01*
X26220935Y35728820D01*
X26153743Y35630320D01*
X26138003Y35596410D01*
X26090305Y35493653D01*
X26059688Y35427695D01*
X25999989Y35212430D01*
X25976251Y34990305D01*
X4636100Y34990305D01*
X4636100Y39879000D01*
X4656102Y39947121D01*
X4709758Y39993614D01*
X4762100Y40005000D01*
X24981000Y40005000D01*
X24981000Y47929115D01*
X25981000Y47929115D01*
X25985475Y47913876D01*
X25986865Y47912671D01*
X25994548Y47911000D01*
X27066885Y47911000D01*
X27082124Y47915475D01*
X27083329Y47916865D01*
X27085000Y47924548D01*
X27085000Y47929115D01*
X27593000Y47929115D01*
X27597475Y47913876D01*
X27598865Y47912671D01*
X27606548Y47911000D01*
X28678884Y47911000D01*
X28694123Y47915475D01*
X28695328Y47916865D01*
X28696999Y47924548D01*
X28696999Y48551669D01*
X28696629Y48558490D01*
X28691105Y48609352D01*
X28687479Y48624604D01*
X28642324Y48745054D01*
X28633786Y48760649D01*
X28557285Y48862724D01*
X28544724Y48875285D01*
X28442649Y48951786D01*
X28427054Y48960324D01*
X28306606Y49005478D01*
X28291351Y49009105D01*
X28240486Y49014631D01*
X28233672Y49015000D01*
X27611115Y49015000D01*
X27595876Y49010525D01*
X27594671Y49009135D01*
X27593000Y49001452D01*
X27593000Y47929115D01*
X27085000Y47929115D01*
X27085000Y48996884D01*
X27080525Y49012123D01*
X27079135Y49013328D01*
X27071452Y49014999D01*
X26444331Y49014999D01*
X26437510Y49014629D01*
X26386648Y49009105D01*
X26371396Y49005479D01*
X26250946Y48960324D01*
X26235351Y48951786D01*
X26133276Y48875285D01*
X26120715Y48862724D01*
X26044214Y48760649D01*
X26035676Y48745054D01*
X25990522Y48624606D01*
X25986895Y48609351D01*
X25981369Y48558486D01*
X25981000Y48551672D01*
X25981000Y47929115D01*
X24981000Y47929115D01*
X24981000Y49365500D01*
X25001002Y49433621D01*
X25054658Y49480114D01*
X25107000Y49491500D01*
X49365500Y49491500D01*
X49433621Y49471498D01*
G37*
%TD.AperFunction*%
%TD*%
M02*
