M48
; DRILL file {KiCad 6.0.7-f9a2dced07~116~ubuntu20.04.1} date Fr 21 Okt 2022 17:12:18 CEST
; FORMAT={-:-/ absolute / metric / decimal}
; #@! TF.CreationDate,2022-10-21T17:12:18+02:00
; #@! TF.GenerationSoftware,Kicad,Pcbnew,6.0.7-f9a2dced07~116~ubuntu20.04.1
; #@! TF.FileFunction,Plated,1,2,PTH
FMAT,2
METRIC
; #@! TA.AperFunction,Plated,PTH,ViaDrill
T1C0.400
; #@! TA.AperFunction,Plated,PTH,ComponentDrill
T2C0.700
; #@! TA.AperFunction,Plated,PTH,ComponentDrill
T3C0.800
; #@! TA.AperFunction,Plated,PTH,ComponentDrill
T4C1.000
; #@! TA.AperFunction,Plated,PTH,ComponentDrill
T5C4.300
%
G90
G05
T1
X5.042Y38.862
X5.042Y36.322
X5.042Y34.036
X5.042Y31.242
X5.042Y28.702
X5.042Y26.162
X5.042Y23.622
X5.042Y21.082
X5.042Y18.542
X5.042Y16.002
X5.042Y13.462
X5.042Y10.922
X5.042Y8.382
X5.042Y5.842
X5.042Y3.302
X6.82Y38.862
X6.82Y1.778
X9.36Y38.862
X9.36Y1.778
X11.9Y38.862
X11.9Y1.778
X14.44Y38.862
X14.44Y1.778
X16.98Y38.862
X16.98Y1.778
X19.52Y38.862
X19.52Y1.778
X22.06Y38.862
X22.06Y1.778
X24.6Y1.778
X25.362Y49.022
X25.362Y46.228
X25.362Y43.942
X25.362Y41.402
X25.362Y38.862
X25.362Y36.322
X25.362Y31.242
X25.362Y28.702
X25.362Y26.162
X25.362Y23.622
X25.362Y21.082
X25.362Y18.542
X25.362Y16.002
X25.362Y13.462
X25.362Y10.922
X25.362Y8.382
X25.362Y5.842
X25.362Y3.302
X29.934Y49.022
X29.934Y46.228
X29.934Y43.942
X29.934Y41.402
X29.934Y38.862
X29.934Y36.322
X29.934Y34.036
X29.934Y31.242
X29.934Y28.702
X29.934Y26.162
X29.934Y23.622
X29.934Y21.082
X29.934Y18.542
X29.934Y16.002
X29.934Y13.462
X32.728Y49.022
X32.728Y1.016
X33.49Y23.622
X35.776Y49.022
X35.776Y21.082
X35.776Y1.016
X38.316Y49.022
X38.316Y1.016
X38.672Y22.758
X39.027Y18.364
X41.11Y49.022
X41.11Y1.016
X41.643Y22.784
X43.904Y49.022
X43.904Y1.016
X45.504Y18.364
X46.444Y49.022
X46.444Y1.016
X48.984Y49.022
X48.984Y46.736
X48.984Y44.196
X48.984Y41.656
X48.984Y39.116
X48.984Y36.576
X48.984Y34.036
X48.984Y31.496
X48.984Y28.956
X48.984Y26.416
X48.984Y23.876
X48.984Y21.336
X48.984Y18.796
X48.984Y16.256
X48.984Y13.716
X48.984Y11.176
X48.984Y8.636
X48.984Y6.096
X48.984Y3.556
X48.984Y1.016
T2
X19.52Y29.845
X19.52Y27.305
X19.52Y24.765
X19.52Y22.225
X19.52Y19.685
X19.52Y17.145
T3
X32.499Y12.892
X32.499Y10.392
T4
X1.939Y47.657
X1.939Y45.117
X1.939Y42.577
X1.939Y40.037
X1.939Y37.497
X1.939Y34.957
X1.939Y32.417
X1.939Y29.877
X1.939Y27.337
X1.939Y24.797
X1.939Y22.257
X1.939Y19.717
X1.939Y17.177
X1.939Y14.637
X1.939Y12.097
X1.939Y9.557
X1.939Y7.017
X1.939Y4.477
X1.939Y1.937
X27.339Y47.657
X27.339Y45.117
X27.339Y42.577
X27.339Y40.037
X27.339Y37.497
X27.339Y34.957
X27.339Y32.417
X27.339Y29.877
X27.339Y27.337
X27.339Y24.797
X27.339Y22.257
X27.339Y19.717
X27.339Y17.177
X27.339Y14.637
X27.339Y12.097
X27.339Y9.557
X27.339Y7.017
X27.339Y4.477
X27.339Y1.937
X37.88Y12.859
X37.88Y10.319
X40.42Y12.859
X40.42Y10.319
X42.96Y12.859
X42.96Y10.319
X45.5Y12.859
X45.5Y10.319
T5
X41.872Y35.357
T0
M30
