%TF.GenerationSoftware,KiCad,Pcbnew,6.0.7-f9a2dced07~116~ubuntu20.04.1*%
%TF.CreationDate,2022-10-21T17:12:48+02:00*%
%TF.ProjectId,openDTU,6f70656e-4454-4552-9e6b-696361645f70,rev?*%
%TF.SameCoordinates,PX729cd20PY72d18e0*%
%TF.FileFunction,Soldermask,Bot*%
%TF.FilePolarity,Negative*%
%FSLAX46Y46*%
G04 Gerber Fmt 4.6, Leading zero omitted, Abs format (unit mm)*
G04 Created by KiCad (PCBNEW 6.0.7-f9a2dced07~116~ubuntu20.04.1) date 2022-10-21 17:12:48*
%MOMM*%
%LPD*%
G01*
G04 APERTURE LIST*
%TA.AperFunction,Profile*%
%ADD10C,0.100000*%
%TD*%
%ADD11C,1.500000*%
%ADD12C,4.700000*%
%ADD13C,7.500000*%
%ADD14R,1.700000X1.700000*%
%ADD15O,1.700000X1.700000*%
%ADD16R,1.600000X1.600000*%
%ADD17C,1.600000*%
%ADD18C,1.700000*%
G04 APERTURE END LIST*
D10*
X0Y50000000D02*
X50000000Y50000000D01*
X50000000Y50000000D02*
X50000000Y0D01*
X50000000Y0D02*
X0Y0D01*
X0Y0D02*
X0Y50000000D01*
D11*
%TO.C,TP6*%
X19520000Y17145000D03*
%TD*%
%TO.C,TP5*%
X19520000Y19685000D03*
%TD*%
%TO.C,TP4*%
X19520000Y22225000D03*
%TD*%
%TO.C,TP3*%
X19520000Y24765000D03*
%TD*%
%TO.C,TP2*%
X19520000Y27305000D03*
%TD*%
%TO.C,TP1*%
X19520000Y29845000D03*
%TD*%
D12*
%TO.C,REF\u002A\u002A*%
X41872000Y35356800D03*
D13*
X41872000Y35356800D03*
%TD*%
D14*
%TO.C,U1*%
X1939000Y47657000D03*
D15*
X1939000Y45117000D03*
X1939000Y42577000D03*
X1939000Y40037000D03*
X1939000Y37497000D03*
X1939000Y34957000D03*
X1939000Y32417000D03*
X1939000Y29877000D03*
X1939000Y27337000D03*
X1939000Y24797000D03*
X1939000Y22257000D03*
X1939000Y19717000D03*
X1939000Y17177000D03*
X1939000Y14637000D03*
X1939000Y12097000D03*
X1939000Y9557000D03*
X1939000Y7017000D03*
X1939000Y4477000D03*
X1939000Y1937000D03*
X27339000Y1937000D03*
X27339000Y4477000D03*
X27339000Y7017000D03*
X27339000Y9557000D03*
X27339000Y12097000D03*
X27339000Y14637000D03*
X27339000Y17177000D03*
X27339000Y19717000D03*
X27339000Y22257000D03*
X27339000Y24797000D03*
X27339000Y27337000D03*
X27339000Y29877000D03*
X27339000Y32417000D03*
X27339000Y34957000D03*
X27339000Y37497000D03*
X27339000Y40037000D03*
X27339000Y42577000D03*
X27339000Y45117000D03*
D14*
X27339000Y47657000D03*
%TD*%
D16*
%TO.C,C1*%
X32499400Y12891779D03*
D17*
X32499400Y10391779D03*
%TD*%
D14*
%TO.C,U2*%
X37880000Y10319000D03*
D18*
X37880000Y12859000D03*
X40420000Y10319000D03*
X40420000Y12859000D03*
X42960000Y10319000D03*
X42960000Y12859000D03*
X45500000Y10319000D03*
X45500000Y12859000D03*
%TD*%
M02*
